<svg width="72" height="72" viewBox="0 0 72 72" fill="none" xmlns="http://www.w3.org/2000/svg">
<path d="M9.00003 38.9999H12V59.9999C12 63.3089 14.691 65.9999 18 65.9999H54C57.309 65.9999 60 63.3089 60 59.9999V38.9999H63C63.5933 38.9998 64.1732 38.8238 64.6664 38.4941C65.1596 38.1645 65.5441 37.696 65.7711 37.1479C65.9981 36.5998 66.0575 35.9967 65.9418 35.4148C65.8261 34.833 65.5405 34.2985 65.121 33.8789L38.121 6.87893C37.8427 6.60009 37.5121 6.37888 37.1481 6.22795C36.7842 6.07702 36.394 5.99933 36 5.99933C35.606 5.99933 35.2159 6.07702 34.852 6.22795C34.488 6.37888 34.1574 6.60009 33.879 6.87893L6.87903 33.8789C6.4596 34.2985 6.17398 34.833 6.05828 35.4148C5.94258 35.9967 6.00199 36.5998 6.229 37.1479C6.45601 37.696 6.84043 38.1645 7.33366 38.4941C7.82689 38.8238 8.40678 38.9998 9.00003 38.9999ZM36 13.2419L54 31.2419V44.9999L54.003 59.9999H18V31.2419L36 13.2419Z" fill="#9955BB"/>
<path d="M36 53.9999C47.109 53.9999 50.703 43.3829 50.85 42.9329L45.15 41.0699C45.126 41.1389 42.807 47.9999 36 47.9999C29.286 47.9999 26.94 41.3369 26.847 41.0519L21.15 42.9329C21.297 43.3829 24.891 53.9999 36 53.9999Z" fill="#9955BB"/>
</svg>
