<svg width="68" height="58" viewBox="0 0 68 58" fill="none" xmlns="http://www.w3.org/2000/svg">
<path d="M14.875 0C15.4386 0 15.9791 0.188564 16.3776 0.524211C16.7761 0.859858 17 1.31509 17 1.78977V3.57954H51V1.78977C51 1.31509 51.2239 0.859858 51.6224 0.524211C52.0209 0.188564 52.5614 0 53.125 0C53.6886 0 54.2291 0.188564 54.6276 0.524211C55.0261 0.859858 55.25 1.31509 55.25 1.78977V3.57954H59.5C61.7543 3.57954 63.9163 4.3338 65.5104 5.67638C67.1045 7.01897 68 8.83991 68 10.7386V50.1135C68 52.0122 67.1045 53.8332 65.5104 55.1758C63.9163 56.5184 61.7543 57.2726 59.5 57.2726H8.5C6.24566 57.2726 4.08365 56.5184 2.48959 55.1758C0.895533 53.8332 0 52.0122 0 50.1135V10.7386C0 8.83991 0.895533 7.01897 2.48959 5.67638C4.08365 4.3338 6.24566 3.57954 8.5 3.57954H12.75V1.78977C12.75 1.31509 12.9739 0.859858 13.3724 0.524211C13.7709 0.188564 14.3114 0 14.875 0V0ZM4.25 14.3182V50.1135C4.25 51.0629 4.69777 51.9734 5.4948 52.6447C6.29183 53.316 7.37283 53.6931 8.5 53.6931H59.5C60.6272 53.6931 61.7082 53.316 62.5052 52.6447C63.3022 51.9734 63.75 51.0629 63.75 50.1135V14.3182H4.25Z" fill="#9955BB"/>
</svg>