<?xml version="1.0" encoding="UTF-8" standalone="no"?>
<svg
   version="1.1"
   width="500"
   height="500"
   id="svg150"
   sodipodi:docname="haven2.svg"
   inkscape:version="1.3.2 (091e20e, 2023-11-25, custom)"
   xmlns:inkscape="http://www.inkscape.org/namespaces/inkscape"
   xmlns:sodipodi="http://sodipodi.sourceforge.net/DTD/sodipodi-0.dtd"
   xmlns="http://www.w3.org/2000/svg"
   xmlns:svg="http://www.w3.org/2000/svg">
  <defs
     id="defs150" />
  <sodipodi:namedview
     id="namedview150"
     pagecolor="#ffffff"
     bordercolor="#999999"
     borderopacity="1"
     inkscape:showpageshadow="2"
     inkscape:pageopacity="0"
     inkscape:pagecheckerboard="0"
     inkscape:deskcolor="#d1d1d1"
     inkscape:zoom="0.35921025"
     inkscape:cx="-16.70331"
     inkscape:cy="264.46907"
     inkscape:window-width="1366"
     inkscape:window-height="697"
     inkscape:window-x="-8"
     inkscape:window-y="-8"
     inkscape:window-maximized="1"
     inkscape:current-layer="svg150" />
  <path
     d="m 302.97376,68.686366 c 5.0957,1.31201 9.07619,1.80828 14.28896,1.48871 0,1.12292 0,2.24583 0,3.40277 0.99133,0.25004 1.98266,0.50006 3.00402,0.75766 19.37364,5.30033 38.31179,15.09192 54.84308,26.464514 0,1.12291 0,2.24583 0,3.40277 1.01765,0.49127 2.03529,0.98255 3.08377,1.48871 3.72178,1.91406 3.72178,1.91406 8.82593,5.31683 0,1.12292 0,2.24583 0,3.40277 0.98475,0.42987 1.96949,0.85975 2.98408,1.30263 4.27561,2.34972 7.11235,4.99777 10.52067,8.48034 1.10318,1.11415 2.20635,2.22829 3.34296,3.37619 38.40885,41.48442 53.74199,94.01988 52.80275,149.66874 -1.74329,29.49088 -10.0634,56.18266 -23.71305,82.17159 -3.47027,6.85487 -3.47027,6.85487 -6.69921,13.82376 -1.80772,3.19009 -1.80772,3.19009 -4.83831,6.18746 -5.68884,5.73892 -10.49195,12.15362 -15.47861,18.50256 -3.60881,4.02085 -3.60881,4.02085 -8.71297,5.72224 -0.49127,1.01326 -0.98255,2.02652 -1.48871,3.07047 -2.55866,4.99296 -5.98403,7.36108 -10.42098,10.75329 -6.17944,4.74225 -6.17944,4.74225 -11.9097,9.99563 -1.68437,-0.56145 -3.36874,-1.12291 -5.10416,-1.70138 0.40485,-39.02949 0.81857,-78.05886 1.24287,-117.08815 0.19678,-18.12234 0.39068,-36.2447 0.57773,-54.36712 0.163,-15.79718 0.33159,-31.59427 0.50664,-47.39131 0.0926,-8.36285 0.18224,-16.7257 0.26547,-25.08866 0.0784,-7.87614 0.16418,-15.75216 0.25557,-23.62816 0.0322,-2.88599 0.0618,-5.772 0.0885,-8.65806 0.0369,-3.95155 0.0835,-7.90288 0.13237,-11.85432 0.0235,-2.20819 0.0471,-4.4164 0.0713,-6.69151 0.27855,-6.76786 1.03468,-13.28311 1.96388,-19.989 -8.83189,5.59931 -16.59023,11.08446 -23.8194,18.71524 -7.90912,6.80554 -7.90912,6.80554 -11.90969,6.80554 0,1.12292 0,2.24583 0,3.40277 -3.37317,2.8708 -6.77701,5.70587 -10.20832,8.50693 -0.56145,1.12291 -1.12291,2.24583 -1.70138,3.40277 -2.95003,1.66984 -5.9027,3.33557 -8.87911,4.95796 -3.86194,2.35442 -6.71017,5.4114 -9.83613,8.65312 -1.12291,0 -2.24583,0 -3.40277,0 -0.56146,1.68437 -1.12291,3.36875 -1.70139,5.10416 -4.52801,4.05139 -7.82084,6.57686 -13.61108,8.50692 -4.0251,-3.03288 -7.66739,-6.08073 -11.37801,-9.46395 -2.14371,-1.90409 -4.29037,-3.80489 -6.44,-5.7023 -1.03327,-0.9151 -2.06654,-1.83021 -3.13111,-2.77305 -3.44606,-2.97428 -7.03639,-5.67997 -10.73918,-8.32583 -5.14686,-3.71535 -8.62296,-7.85928 -12.54772,-12.86673 -2.80424,-1.75265 -5.64014,-3.45575 -8.50692,-5.10415 -2.30795,-2.22838 -4.56919,-4.50531 -6.80555,-6.80555 -8.3704,-7.52602 -16.96225,-14.80759 -25.52078,-22.118 -0.0468,2.58734 -0.0793,5.17495 -0.10633,7.76257 -0.0197,1.44093 -0.0395,2.88185 -0.0599,4.36645 0.0682,4.97723 0.0682,4.97723 1.01515,10.20149 0.94394,7.30131 1.07866,14.34024 1.04553,21.6891 2.6e-4,1.46206 5e-4,2.92412 7.5e-4,4.4305 -0.001,4.7961 -0.0136,9.59208 -0.0277,14.38817 -0.003,3.33977 -0.005,6.67955 -0.007,10.01934 -0.007,8.76305 -0.0231,17.52606 -0.042,26.28909 -0.0175,8.95293 -0.0252,17.90587 -0.0337,26.85882 -0.0182,17.54668 -0.0482,35.09328 -0.083,52.63993 11.7906,0 23.58121,0 35.7291,0 0,-30.88015 0,-61.76029 0,-93.5762 1.68437,-0.56146 3.36874,-1.12291 5.10415,-1.70138 0.96721,0.9036 1.93441,1.80719 2.93091,2.73817 7.71949,7.06223 14.96782,12.91755 24.29126,17.67845 0,1.12292 0,2.24583 0,3.40277 0.98255,0.14037 1.9651,0.28073 2.97742,0.42535 4.87605,1.62535 7.22932,4.31248 10.63366,8.08158 10.03705,-3.04152 16.97921,-10.07545 24.1384,-17.4392 3.18522,-3.07536 5.93549,-4.46319 9.88931,-6.3802 1.47382,-1.19309 2.94765,-2.38619 4.46613,-3.61544 4.04079,-3.1901 4.04079,-3.1901 7.44356,-3.1901 1.53799,10.482 1.94445,20.6496 1.92155,31.23514 0.005,2.57272 0.005,2.57272 0.009,5.19741 0.007,5.66058 0.002,11.32107 -0.003,16.98165 0.001,3.99575 0.003,7.9915 0.005,11.98724 0.002,8.39954 -0.001,16.79906 -0.009,25.19859 -0.0102,10.58098 -0.003,21.16188 0.005,31.74287 0.0359,45.45011 -0.17167,90.84734 -1.92908,136.26767 -16.27189,5.99912 -32.00348,10.97079 -49.23384,13.39841 -1.42598,0.20356 -2.85196,0.40713 -4.32116,0.61684 -17.64971,2.25017 -34.22329,1.38826 -51.71821,-1.6802 -1.79992,-0.31321 -3.59985,-0.62644 -5.45432,-0.94914 -34.26502,-6.16648 -65.36012,-19.03826 -91.73732,-42.01084 -0.89673,-0.77748 -1.79348,-1.55497 -2.71739,-2.35601 -10.66151,-9.3067 -20.62802,-19.00494 -29.608929,-29.97031 -1.737,-1.94755 -1.737,-1.94755 -3.50911,-3.93446 -5.28634,-7.33266 -9.31891,-15.28999 -13.50475,-23.28771 -0.86631,-1.58348 -1.7326,-3.16696 -2.62517,-4.79843 -25.06911,-47.30265 -27.53278,-102.50925 -12.68729,-153.43041 6.41948,-18.94604 16.18451,-36.14006 27.22216,-52.74294 1.18433,-1.88614 2.36865,-3.77228 3.58887,-5.71558 1.06151,-1.48261 2.123,-2.9652 3.21667,-4.49273 1.122919,0 2.245829,0 3.402769,0 0.38601,-0.94745 0.77201,-1.89492 1.1697,-2.87109 2.8529,-5.02652 6.61116,-8.41083 10.74,-12.44138 1.63175,-2.15809 1.63175,-2.15809 3.29643,-4.3598 4.04008,-4.77462 8.48491,-7.58059 13.71742,-10.95267 0.56146,-1.12291 1.12292,-2.24583 1.70139,-3.40277 2.80728,0.56146 5.61457,1.12291 8.50693,1.70139 0,101.62374 0,203.24749 0,307.95074 11.22914,0 22.45828,0 34.0277,0 0,-21.89683 0,-43.79366 0,-66.35403 13.26431,-0.28156 26.5285,-0.55786 39.79316,-0.82035 4.51549,-0.091 9.03092,-0.18515 13.54628,-0.28247 6.47809,-0.139 12.9563,-0.26695 19.43467,-0.39252 3.04394,-0.0691 3.04394,-0.0691 6.1494,-0.13935 1.87321,-0.0342 3.74641,-0.0684 5.6764,-0.10361 2.48222,-0.051 2.48222,-0.051 5.01458,-0.10311 3.96171,0.14003 3.96171,0.14003 7.36448,1.8414 0,21.89683 0,43.79365 0,66.35402 11.22914,0 22.45828,0 34.0277,0 0,-51.65405 0,-103.30811 0,-156.52745 -11.22914,0 -22.45828,0 -34.0277,0 0,18.52809 0,37.05618 0,56.14572 -12.38197,0.0357 -24.76377,0.0698 -37.14574,0.0881 -5.76553,0.009 -11.53102,0.0211 -17.2965,0.0403 -6.60907,0.0219 -13.21812,0.0303 -19.82722,0.0378 -2.07529,0.009 -4.15059,0.0175 -6.28877,0.0265 -2.86111,1.8e-4 -2.86111,1.8e-4 -5.78002,3.9e-4 -2.53323,0.005 -2.53323,0.005 -5.11761,0.0119 -3.82172,-0.20461 -3.82172,-0.20461 -5.52311,-1.906 -0.16384,-2.99261 -0.20735,-5.99188 -0.20459,-8.98899 -0.003,-2.92392 -0.003,-2.92392 -0.007,-5.90689 0.009,-3.23631 0.009,-3.23631 0.0186,-6.538 4.8e-4,-2.27991 2e-4,-4.55981 -7.5e-4,-6.83972 -4.9e-4,-6.20768 0.0102,-12.4153 0.0214,-18.62296 0.0102,-6.48061 0.0119,-12.96124 0.0136,-19.44186 0.005,-12.28016 0.0192,-24.56032 0.0364,-36.84047 0.0191,-13.97705 0.0284,-27.95411 0.0369,-41.93117 0.0179,-28.75946 0.0478,-57.51889 0.0856,-86.278344 3.18455,-1.37049 6.3738,-2.73008 9.5649,-4.08523 1.77548,-0.75833 3.55096,-1.51665 5.38026,-2.29794 8.61382,-3.34345 17.35664,-5.21812 26.41977,-6.90891 1.90576,-0.35625 3.81149,-0.7125 5.775,-1.07956 27.15684,-4.70122 53.20868,-4.95042 79.78609,2.67461 z"
     fill="#601863"
     id="path1"
     style="fill:#ffffff;fill-opacity:1;stroke:#601863;stroke-width:15.6527;stroke-dasharray:none;stroke-opacity:1" />
</svg>
