<?xml version="1.0" encoding="UTF-8"?>
<svg version="1.1" xmlns="http://www.w3.org/2000/svg" width="500" height="500">
<path d="M0 0 C2.99503305 0.77113495 5.33459042 1.06282204 8.3984375 0.875 C8.3984375 1.535 8.3984375 2.195 8.3984375 2.875 C8.98109375 3.02195313 9.56375 3.16890625 10.1640625 3.3203125 C21.55104716 6.43561962 32.68205818 12.19068231 42.3984375 18.875 C42.3984375 19.535 42.3984375 20.195 42.3984375 20.875 C42.9965625 21.16375 43.5946875 21.4525 44.2109375 21.75 C46.3984375 22.875 46.3984375 22.875 49.3984375 24.875 C49.3984375 25.535 49.3984375 26.195 49.3984375 26.875 C49.97722656 27.12765625 50.55601562 27.3803125 51.15234375 27.640625 C53.665359 29.02169077 55.33266968 30.57809664 57.3359375 32.625 C57.98433594 33.27984375 58.63273438 33.9346875 59.30078125 34.609375 C81.87582801 58.99210707 90.88797072 89.87015665 90.3359375 122.578125 C89.31129983 139.9115789 84.4211063 155.59983861 76.3984375 170.875 C74.35876536 174.90398691 74.35876536 174.90398691 72.4609375 179 C71.3984375 180.875 71.3984375 180.875 69.6171875 182.63671875 C66.27353685 186.00980295 63.45047179 189.78008282 60.51953125 193.51171875 C58.3984375 195.875 58.3984375 195.875 55.3984375 196.875 C55.1096875 197.47054687 54.8209375 198.06609375 54.5234375 198.6796875 C53.01956287 201.61433174 51.00628326 203.00621094 48.3984375 205 C44.76643146 207.78729157 44.76643146 207.78729157 41.3984375 210.875 C40.4084375 210.545 39.4184375 210.215 38.3984375 209.875 C38.6363874 186.93517092 38.87955797 163.99540247 39.12892818 141.05569458 C39.24459592 130.40417908 39.35856111 119.75265046 39.46850586 109.10107422 C39.56434804 99.81619117 39.6633973 90.53134879 39.76628309 81.24654102 C39.82063858 76.33122119 39.87339793 71.41589601 39.9223156 66.5005188 C39.96843644 61.87126884 40.01885483 57.24208532 40.07252693 52.61291695 C40.09144405 50.91665895 40.1088097 49.22038281 40.1244812 47.52409172 C40.14617446 45.2015385 40.17353871 42.87911615 40.20225525 40.55664062 C40.21608214 39.2587561 40.22990904 37.96087158 40.24415493 36.62365723 C40.40787027 32.64580862 40.85228909 28.81642756 41.3984375 24.875 C36.20743302 28.16602899 31.64742126 31.38996159 27.3984375 35.875 C22.74978885 39.875 22.74978885 39.875 20.3984375 39.875 C20.3984375 40.535 20.3984375 41.195 20.3984375 41.875 C18.41583324 43.56232277 16.4152033 45.22866057 14.3984375 46.875 C14.0684375 47.535 13.7384375 48.195 13.3984375 48.875 C11.66453308 49.85645533 9.92908527 50.83549732 8.1796875 51.7890625 C5.90980101 53.17289681 4.23573292 54.9696566 2.3984375 56.875 C1.7384375 56.875 1.0784375 56.875 0.3984375 56.875 C0.0684375 57.865 -0.2615625 58.855 -0.6015625 59.875 C-3.26293449 62.25622757 -5.1983202 63.7405859 -8.6015625 64.875 C-10.9673504 63.09239234 -13.10812331 61.30100338 -15.2890625 59.3125 C-16.5490486 58.19335875 -17.81075575 57.07615199 -19.07421875 55.9609375 C-19.68152832 55.42307617 -20.28883789 54.88521484 -20.91455078 54.33105469 C-22.93998711 52.58290675 -25.05022348 50.99261559 -27.2265625 49.4375 C-30.25166259 47.25377594 -32.29476273 44.81815833 -34.6015625 41.875 C-36.24977494 40.84486723 -37.91659952 39.84385372 -39.6015625 38.875 C-40.9580789 37.56526002 -42.28713888 36.22697858 -43.6015625 34.875 C-48.52133065 30.45152426 -53.57123383 26.17173907 -58.6015625 21.875 C-58.62910081 23.3957267 -58.64819625 24.91660674 -58.6640625 26.4375 C-58.67566406 27.28441406 -58.68726563 28.13132813 -58.69921875 29.00390625 C-58.65913445 31.92930737 -58.65913445 31.92930737 -58.10255432 34.99989319 C-57.54774358 39.29128239 -57.46856958 43.42846529 -57.48803711 47.74780273 C-57.48789108 48.60713913 -57.48774506 49.46647552 -57.4875946 50.35185242 C-57.48828705 53.17079255 -57.49604797 55.98966526 -57.50390625 58.80859375 C-57.50577281 60.77157047 -57.50719559 62.73454767 -57.50819397 64.69752502 C-57.51200044 69.84806621 -57.52181467 74.99857891 -57.53289795 80.14910889 C-57.54315237 85.41125096 -57.54770021 90.67339767 -57.55273438 95.93554688 C-57.56343869 106.2487124 -57.58102026 116.56184937 -57.6015625 126.875 C-50.6715625 126.875 -43.7415625 126.875 -36.6015625 126.875 C-36.6015625 108.725 -36.6015625 90.575 -36.6015625 71.875 C-35.6115625 71.545 -34.6215625 71.215 -33.6015625 70.875 C-33.03308594 71.40609375 -32.46460938 71.9371875 -31.87890625 72.484375 C-27.34172912 76.63524823 -23.08147933 80.0767446 -17.6015625 82.875 C-17.6015625 83.535 -17.6015625 84.195 -17.6015625 84.875 C-17.0240625 84.9575 -16.4465625 85.04 -15.8515625 85.125 C-12.9856321 86.08031013 -11.6024861 87.65969173 -9.6015625 89.875 C-3.70222807 88.0873229 0.3780744 83.95308776 4.5859375 79.625 C6.45806105 77.81743243 8.07455696 77.00172996 10.3984375 75.875 C11.2646875 75.17375 12.1309375 74.4725 13.0234375 73.75 C15.3984375 71.875 15.3984375 71.875 17.3984375 71.875 C18.30239748 78.0358526 18.54129482 84.01192585 18.52783203 90.23364258 C18.53046051 91.74577332 18.53046051 91.74577332 18.53314209 93.28845215 C18.53753331 96.61549619 18.53462619 99.94248667 18.53125 103.26953125 C18.53192523 105.61805735 18.53289707 107.96658339 18.53414917 110.31510925 C18.53562364 115.25199037 18.53348481 120.18885341 18.52880859 125.12573242 C18.5231952 131.34477279 18.52642437 137.56376956 18.53226089 143.7828083 C18.55339032 170.49640127 18.43135931 197.17890238 17.3984375 223.875 C7.83452494 227.40101557 -1.41181506 230.32314956 -11.5390625 231.75 C-12.37719482 231.86964111 -13.21532715 231.98928223 -14.07885742 232.11254883 C-24.45258405 233.43509971 -34.19381554 232.92851195 -44.4765625 231.125 C-45.53447998 230.94090576 -46.59239746 230.75681152 -47.68237305 230.56713867 C-67.82185764 226.94274424 -86.09819478 219.37728114 -101.6015625 205.875 C-102.12862793 205.41802734 -102.65569336 204.96105469 -103.19873047 204.49023438 C-109.46509215 199.0201716 -115.32297355 193.31996271 -120.6015625 186.875 C-121.6225 185.7303125 -121.6225 185.7303125 -122.6640625 184.5625 C-125.7711436 180.25267783 -128.14132041 175.57571069 -130.6015625 170.875 C-131.11074219 169.94429687 -131.61992187 169.01359375 -132.14453125 168.0546875 C-146.87906127 140.25225811 -148.32709198 107.80422985 -139.6015625 77.875 C-135.82847457 66.73933645 -130.08901842 56.6334421 -123.6015625 46.875 C-122.90546875 45.76640625 -122.209375 44.6578125 -121.4921875 43.515625 C-120.86828125 42.64421875 -120.244375 41.7728125 -119.6015625 40.875 C-118.9415625 40.875 -118.2815625 40.875 -117.6015625 40.875 C-117.3746875 40.318125 -117.1478125 39.76125 -116.9140625 39.1875 C-115.23725749 36.23312928 -113.02831898 34.24397657 -110.6015625 31.875 C-109.6425 30.6065625 -109.6425 30.6065625 -108.6640625 29.3125 C-106.28948898 26.50618584 -103.67700791 24.85695371 -100.6015625 22.875 C-100.2715625 22.215 -99.9415625 21.555 -99.6015625 20.875 C-97.9515625 21.205 -96.3015625 21.535 -94.6015625 21.875 C-94.6015625 81.605 -94.6015625 141.335 -94.6015625 202.875 C-88.0015625 202.875 -81.4015625 202.875 -74.6015625 202.875 C-74.6015625 190.005 -74.6015625 177.135 -74.6015625 163.875 C-66.80538616 163.70950311 -59.00927815 163.54710562 -51.21289062 163.39282227 C-48.5588811 163.33934547 -45.90490834 163.28401188 -43.25097656 163.22680664 C-39.44344002 163.14505408 -35.63582264 163.06990904 -31.828125 162.99609375 C-30.03902206 162.95554115 -30.03902206 162.95554115 -28.21377563 162.91416931 C-27.11278534 162.89407303 -26.01179504 162.87397675 -24.87744141 162.85327148 C-23.4184996 162.82329323 -23.4184996 162.82329323 -21.93008423 162.79270935 C-19.6015625 162.875 -19.6015625 162.875 -17.6015625 163.875 C-17.6015625 176.745 -17.6015625 189.615 -17.6015625 202.875 C-11.0015625 202.875 -4.4015625 202.875 2.3984375 202.875 C2.3984375 172.515 2.3984375 142.155 2.3984375 110.875 C-4.2015625 110.875 -10.8015625 110.875 -17.6015625 110.875 C-17.6015625 121.765 -17.6015625 132.655 -17.6015625 143.875 C-24.87914711 143.89594604 -32.15662313 143.91598406 -39.43421173 143.92675018 C-42.82293481 143.93203969 -46.21163306 143.9391128 -49.6003418 143.95043945 C-53.48486027 143.96334267 -57.36936847 143.96822924 -61.25390625 143.97265625 C-62.47367661 143.97781754 -63.69344696 143.98297882 -64.95018005 143.98829651 C-66.63180992 143.98840981 -66.63180992 143.98840981 -68.34741211 143.98852539 C-69.83633217 143.99185631 -69.83633217 143.99185631 -71.35533142 143.99525452 C-73.6015625 143.875 -73.6015625 143.875 -74.6015625 142.875 C-74.69788295 141.1160657 -74.7234376 139.35322841 -74.72181702 137.59165955 C-74.72387901 135.87311012 -74.72387901 135.87311012 -74.72598267 134.11984253 C-74.72058975 132.21768478 -74.72058975 132.21768478 -74.71508789 130.27709961 C-74.71480602 128.93706769 -74.71496375 127.59703561 -74.7155304 126.25700378 C-74.71581837 122.60840562 -74.7099217 118.95984005 -74.70295644 115.31124949 C-74.69672284 111.50222484 -74.6961191 107.6931995 -74.69493103 103.88417053 C-74.69181773 96.66642246 -74.68360436 89.44868946 -74.67358154 82.23094803 C-74.66242036 74.01584743 -74.65690994 65.80074612 -74.65188611 57.58563983 C-74.64142175 40.68208449 -74.62382233 23.77854384 -74.6015625 6.875 C-72.72982217 6.06949018 -70.85532729 5.2703796 -68.97973633 4.47387695 C-67.93618484 4.02816849 -66.89263336 3.58246002 -65.81745911 3.12324524 C-60.75462405 1.15811373 -55.61597769 0.0562634 -50.2890625 -0.9375 C-49.16894775 -1.14689209 -48.04883301 -1.35628418 -46.89477539 -1.57202148 C-30.93316355 -4.33519208 -15.62104096 -4.48165852 0 0 Z " fill="#601863" transform="translate(279.6015625,138.125)"/>
<path d="M0 0 C0.66 0 1.32 0 2 0 C2 60.06 2 120.12 2 182 C1.34 182 0.68 182 0 182 C-0.33 182.66 -0.66 183.32 -1 184 C-1.99 183.01 -1.99 183.01 -3 182 C-4.18335938 181.54947266 -4.18335938 181.54947266 -5.390625 181.08984375 C-20.26184315 174.87866132 -31.58372314 152.31787124 -37.75 138.0625 C-49.1525148 109.8648746 -49.83028134 76.77013902 -38.19238281 48.51416016 C-34.52307319 40.24662434 -30.00302743 32.52556227 -25 25 C-24.30390625 23.89140625 -23.6078125 22.7828125 -22.890625 21.640625 C-22.26671875 20.76921875 -21.6428125 19.8978125 -21 19 C-20.34 19 -19.68 19 -19 19 C-18.773125 18.443125 -18.54625 17.88625 -18.3125 17.3125 C-14.85925965 11.22821938 -8.94259555 7.69515705 -3.328125 3.76953125 C-0.92126034 2.21041191 -0.92126034 2.21041191 0 0 Z " fill="#5F1562" transform="translate(181,160)"/>
<path d="M0 0 C1.04607422 0.92039063 1.04607422 0.92039063 2.11328125 1.859375 C2.11328125 2.519375 2.11328125 3.179375 2.11328125 3.859375 C2.83515625 4.08625 3.55703125 4.313125 4.30078125 4.546875 C7.65973014 6.11438448 9.67330704 8.16023254 12.11328125 10.859375 C13.13808594 11.94798828 13.13808594 11.94798828 14.18359375 13.05859375 C39.33753527 40.21632383 50.24341528 73.68902965 49.4609375 110.1875 C48.43387677 135.88242437 39.18961435 161.7411661 23.11328125 181.859375 C22.37980469 182.79523438 21.64632812 183.73109375 20.890625 184.6953125 C9.14632033 199.40087409 -4.31822519 210.10692973 -20.88671875 218.859375 C-21.50289062 219.18574951 -22.1190625 219.51212402 -22.75390625 219.84838867 C-51.93583249 234.92160778 -87.00297108 237.51488835 -118.38134766 228.11181641 C-142.61774573 220.3810366 -164.69914727 206.67852576 -180.88671875 186.859375 C-181.71236328 185.88291016 -181.71236328 185.88291016 -182.5546875 184.88671875 C-204.59765391 157.90047841 -212.78594994 124.16171282 -210.88671875 89.859375 C-210.14584397 83.05544627 -208.64565228 76.46440887 -206.88671875 69.859375 C-206.7047998 69.15135742 -206.52288086 68.44333984 -206.33544922 67.71386719 C-198.24683948 36.9063116 -176.92918458 7.91148267 -149.39453125 -8.19921875 C-148.22744457 -8.85028497 -147.05809006 -9.49729943 -145.88671875 -10.140625 C-145.26635742 -10.48367676 -144.64599609 -10.82672852 -144.00683594 -11.18017578 C-134.30476363 -16.47066161 -124.5860976 -20.39151286 -113.88671875 -23.140625 C-112.78215332 -23.43477295 -112.78215332 -23.43477295 -111.65527344 -23.73486328 C-72.69759377 -33.81637878 -31.94916337 -23.69166648 0 0 Z M-156.88671875 2.859375 C-157.40862793 3.27590332 -157.93053711 3.69243164 -158.46826172 4.12158203 C-165.96813281 10.13863907 -172.73052224 16.43572627 -178.88671875 23.859375 C-179.52351563 24.62121094 -180.1603125 25.38304687 -180.81640625 26.16796875 C-184.8176071 31.12224533 -187.97790254 36.20672022 -190.88671875 41.859375 C-191.70462891 43.35017578 -191.70462891 43.35017578 -192.5390625 44.87109375 C-196.08182846 51.54575785 -198.8865739 58.22361467 -201.19921875 65.421875 C-201.56261353 66.5353833 -201.56261353 66.5353833 -201.93334961 67.67138672 C-205.45274661 79.14265811 -206.25288081 90.6664998 -206.19921875 102.609375 C-206.1935791 103.92832764 -206.18793945 105.24728027 -206.18212891 106.60620117 C-205.85888043 132.61490146 -197.58505088 157.03112107 -181.88671875 177.859375 C-181.00963569 179.12877157 -180.13444964 180.39948231 -179.26171875 181.671875 C-176.98515535 184.72726273 -174.64174769 187.23553791 -171.88671875 189.859375 C-171.13455078 190.64248047 -171.13455078 190.64248047 -170.3671875 191.44140625 C-148.09896988 214.54403015 -115.73610402 228.4083424 -83.72705078 229.2109375 C-60.20745502 229.40501359 -38.41331731 223.24402383 -17.88671875 211.859375 C-16.93023437 211.33214844 -15.97375 210.80492187 -14.98828125 210.26171875 C-9.31479667 206.98855457 -3.67875266 203.35045992 1.11328125 198.859375 C1.11328125 198.199375 1.11328125 197.539375 1.11328125 196.859375 C1.685625 196.611875 2.25796875 196.364375 2.84765625 196.109375 C5.46338736 194.66621301 7.26101581 192.97721278 9.36328125 190.859375 C10.0696875 190.158125 10.77609375 189.456875 11.50390625 188.734375 C13.33038524 187.01826732 13.33038524 187.01826732 13.11328125 184.859375 C14.10328125 184.529375 15.09328125 184.199375 16.11328125 183.859375 C17.82151177 181.74540298 19.38610911 179.65302361 20.92578125 177.421875 C21.37010498 176.78588379 21.81442871 176.14989258 22.2722168 175.49462891 C40.67738319 148.92390808 49.53046071 115.36474204 43.98828125 83.171875 C40.34968078 64.38065447 33.46810897 46.36610648 22.11328125 30.859375 C21.46166016 29.92158203 21.46166016 29.92158203 20.796875 28.96484375 C2.36375787 3.17948616 -25.87612343 -15.14032258 -57.07421875 -20.953125 C-91.88152112 -26.6797862 -129.13332431 -19.54300526 -156.88671875 2.859375 Z " fill="#804D82" transform="translate(332.88671875,149.140625)"/>
<path d="M0 0 C-0.95084473 -0.02356567 -0.95084473 -0.02356567 -1.92089844 -0.04760742 C-17.21962 -0.58276439 -17.21962 -0.58276439 -32.15234375 2.20703125 C-36.95439147 3.54422698 -41.90389657 3.93695474 -46.84765625 4.47265625 C-50.14946333 4.80366478 -50.14946333 4.80366478 -53 7 C-56.3 7.66 -59.6 8.32 -63 9 C-63 53.22 -63 97.44 -63 143 C-44.85 143 -26.7 143 -8 143 C-8 132.44 -8 121.88 -8 111 C-0.74 111 6.52 111 14 111 C14 142.02 14 173.04 14 205 C6.74 205 -0.52 205 -8 205 C-8 192.13 -8 179.26 -8 166 C-25.82 166 -43.64 166 -62 166 C-62 178.87 -62 191.74 -62 205 C-69.59 205 -77.18 205 -85 205 C-84.505 207.475 -84.505 207.475 -84 210 C-82.03241727 211.36020151 -82.03241727 211.36020151 -80 212 C-80 212.66 -80 213.32 -80 214 C-85.40489519 212.47987323 -88.98492628 208.72614782 -93 205 C-90.66666667 205 -88.33333333 205 -86 205 C-86 144.94 -86 84.88 -86 23 C-86.66 23 -87.32 23 -88 23 C-88.33 23.99 -88.66 24.98 -89 26 C-90.84765625 27.38671875 -90.84765625 27.38671875 -93.0625 28.6875 C-94.16271484 29.34298828 -94.16271484 29.34298828 -95.28515625 30.01171875 C-96.13400391 30.50091797 -96.13400391 30.50091797 -97 31 C-95.6645075 26.99352249 -93.47234113 26.24255364 -90 24 C-89.67 23.34 -89.34 22.68 -89 22 C-87.35 22.33 -85.7 22.66 -84 23 C-84 82.73 -84 142.46 -84 204 C-77.4 204 -70.8 204 -64 204 C-64 191.13 -64 178.26 -64 165 C-56.20382366 164.83450311 -48.40771565 164.67210562 -40.61132812 164.51782227 C-37.9573186 164.46434547 -35.30334584 164.40901188 -32.64941406 164.35180664 C-28.84187752 164.27005408 -25.03426014 164.19490904 -21.2265625 164.12109375 C-19.43745956 164.08054115 -19.43745956 164.08054115 -17.61221313 164.03916931 C-16.51122284 164.01907303 -15.41023254 163.99897675 -14.27587891 163.97827148 C-12.8169371 163.94829323 -12.8169371 163.94829323 -11.32852173 163.91770935 C-9 164 -9 164 -7 165 C-7 177.87 -7 190.74 -7 204 C-0.4 204 6.2 204 13 204 C13 173.64 13 143.28 13 112 C6.4 112 -0.2 112 -7 112 C-7 122.89 -7 133.78 -7 145 C-14.27758461 145.02094604 -21.55506063 145.04098406 -28.83264923 145.05175018 C-32.22137231 145.05703969 -35.61007056 145.0641128 -38.9987793 145.07543945 C-42.88329777 145.08834267 -46.76780597 145.09322924 -50.65234375 145.09765625 C-51.87211411 145.10281754 -53.09188446 145.10797882 -54.34861755 145.11329651 C-56.03024742 145.11340981 -56.03024742 145.11340981 -57.74584961 145.11352539 C-59.23476967 145.11685631 -59.23476967 145.11685631 -60.75376892 145.12025452 C-63 145 -63 145 -64 144 C-64.09632045 142.2410657 -64.1218751 140.47822841 -64.12025452 138.71665955 C-64.12162918 137.57095993 -64.12300385 136.42526031 -64.12442017 135.24484253 C-64.11902725 133.34268478 -64.11902725 133.34268478 -64.11352539 131.40209961 C-64.11324352 130.06206769 -64.11340125 128.72203561 -64.1139679 127.38200378 C-64.11425587 123.73340562 -64.1083592 120.08484005 -64.10139394 116.43624949 C-64.09516034 112.62722484 -64.0945566 108.8181995 -64.09336853 105.00917053 C-64.09025523 97.79142246 -64.08204186 90.57368946 -64.07201904 83.35594803 C-64.06085786 75.14084743 -64.05534744 66.92574612 -64.05032361 58.71063983 C-64.03985925 41.80708449 -64.02225983 24.90354384 -64 8 C-62.12825967 7.19449018 -60.25376479 6.3953796 -58.37817383 5.59887695 C-57.33462234 5.15316849 -56.29107086 4.70746002 -55.21589661 4.24824524 C-50.15266445 2.2829596 -45.01436454 1.18314119 -39.6875 0.1875 C-38.57753662 -0.02334229 -37.46757324 -0.23418457 -36.32397461 -0.45141602 C-8.09925428 -5.39950285 -8.09925428 -5.39950285 0 0 Z " fill="#D4B6D5" transform="translate(269,137)"/>
<path d="M0 0 C-0.95084473 -0.02356567 -0.95084473 -0.02356567 -1.92089844 -0.04760742 C-17.21962 -0.58276439 -17.21962 -0.58276439 -32.15234375 2.20703125 C-36.95439147 3.54422698 -41.90389657 3.93695474 -46.84765625 4.47265625 C-50.14946333 4.80366478 -50.14946333 4.80366478 -53 7 C-56.3 7.66 -59.6 8.32 -63 9 C-63 53.22 -63 97.44 -63 143 C-44.85 143 -26.7 143 -8 143 C-8 132.44 -8 121.88 -8 111 C-0.74 111 6.52 111 14 111 C14 142.02 14 173.04 14 205 C6.74 205 -0.52 205 -8 205 C-8 191.8 -8 178.6 -8 165 C-7.67 165 -7.34 165 -7 165 C-7 177.87 -7 190.74 -7 204 C-0.4 204 6.2 204 13 204 C13 173.64 13 143.28 13 112 C6.4 112 -0.2 112 -7 112 C-7 122.89 -7 133.78 -7 145 C-14.27758461 145.02094604 -21.55506063 145.04098406 -28.83264923 145.05175018 C-32.22137231 145.05703969 -35.61007056 145.0641128 -38.9987793 145.07543945 C-42.88329777 145.08834267 -46.76780597 145.09322924 -50.65234375 145.09765625 C-51.87211411 145.10281754 -53.09188446 145.10797882 -54.34861755 145.11329651 C-56.03024742 145.11340981 -56.03024742 145.11340981 -57.74584961 145.11352539 C-58.73846298 145.115746 -59.73107635 145.11796661 -60.75376892 145.12025452 C-63 145 -63 145 -64 144 C-64.09632045 142.2410657 -64.1218751 140.47822841 -64.12025452 138.71665955 C-64.12162918 137.57095993 -64.12300385 136.42526031 -64.12442017 135.24484253 C-64.12082489 133.97673737 -64.11722961 132.7086322 -64.11352539 131.40209961 C-64.11324352 130.06206769 -64.11340125 128.72203561 -64.1139679 127.38200378 C-64.11425587 123.73340562 -64.1083592 120.08484005 -64.10139394 116.43624949 C-64.09516034 112.62722484 -64.0945566 108.8181995 -64.09336853 105.00917053 C-64.09025523 97.79142246 -64.08204186 90.57368946 -64.07201904 83.35594803 C-64.06085786 75.14084743 -64.05534744 66.92574612 -64.05032361 58.71063983 C-64.03985925 41.80708449 -64.02225983 24.90354384 -64 8 C-62.12825967 7.19449018 -60.25376479 6.3953796 -58.37817383 5.59887695 C-57.33462234 5.15316849 -56.29107086 4.70746002 -55.21589661 4.24824524 C-50.15266445 2.2829596 -45.01436454 1.18314119 -39.6875 0.1875 C-38.57753662 -0.02334229 -37.46757324 -0.23418457 -36.32397461 -0.45141602 C-8.09925428 -5.39950285 -8.09925428 -5.39950285 0 0 Z " fill="#EFD8EF" transform="translate(269,137)"/>
<path d="M0 0 C0.99 0.33 1.98 0.66 3 1 C2.44349083 4.41601906 1.64822025 6.97234694 -0.125 9.9375 C-13.98299777 34.25888514 -19.30211782 58.11555834 -20 86 C-20.66 86 -21.32 86 -22 86 C-22 86.99 -22 87.98 -22 89 C-22.66 89 -23.32 89 -24 89 C-24.48675312 73.13184831 -24.09626453 58.38202867 -20 43 C-19.81808105 42.29198242 -19.63616211 41.58396484 -19.44873047 40.85449219 C-15.5471812 25.99443589 -8.59516693 12.67787123 0 0 Z " fill="#825285" transform="translate(146,176)"/>
<path d="M0 0 C0.5671875 0.22429687 1.134375 0.44859375 1.71875 0.6796875 C-0.53377518 5.35550692 -3.51620404 7.38106058 -7.96875 9.7421875 C-8.55591797 10.06767578 -9.14308594 10.39316406 -9.74804688 10.72851562 C-11.58090171 11.73568831 -13.4276584 12.71126087 -15.28125 13.6796875 C-15.90684814 14.01258789 -16.53244629 14.34548828 -17.17700195 14.68847656 C-22.33166293 17.36303433 -27.6137391 19.39786308 -33.09375 21.3046875 C-33.91939453 21.60375 -34.74503906 21.9028125 -35.59570312 22.2109375 C-47.38834778 26.3461395 -58.59587737 26.95117745 -70.96875 26.8046875 C-72.4602804 26.79463042 -73.95181742 26.78550942 -75.44335938 26.77734375 C-79.05612974 26.75556294 -82.66864593 26.721186 -86.28125 26.6796875 C-82.42120847 24.55629381 -78.9919264 24.31849447 -74.65625 24.1796875 C-68.34896736 23.97067424 -62.43932604 23.06032376 -56.28125 21.6796875 C-55.4145166 21.48810059 -54.5477832 21.29651367 -53.65478516 21.09912109 C-36.08666648 17.0922448 -19.06544307 11.52852984 -4.375 0.796875 C-2.28125 -0.3203125 -2.28125 -0.3203125 0 0 Z " fill="#89598A" transform="translate(327.28125,354.3203125)"/>
<path d="M0 0 C2.475 0.495 2.475 0.495 5 1 C-2.27750242 21.50932499 -19.11559846 38.99070701 -36 52 C-36.495 50.515 -36.495 50.515 -37 49 C-37.66 48.34 -38.32 47.68 -39 47 C-37.948125 46.278125 -36.89625 45.55625 -35.8125 44.8125 C-32.5366415 42.46884973 -29.78411091 39.92331645 -27 37 C-26.23429687 36.26523437 -26.23429687 36.26523437 -25.453125 35.515625 C-14.74263069 25.19817636 -6.49926836 13.33745562 0 0 Z " fill="#7E4D81" transform="translate(365,306)"/>
<path d="M0 0 C0.33 0 0.66 0 1 0 C1.45087728 20.34959445 1.82082788 43.26875817 -10 61 C-11.32 61 -12.64 61 -14 61 C-13.55456892 58.06015488 -12.8727176 55.71873516 -11.640625 52.99609375 C-9.54992012 48.19180072 -8.32202051 43.19951785 -7.0625 38.125 C-6.80452637 37.09375 -6.54655273 36.0625 -6.28076172 35 C-3.48562322 23.45070341 -1.67059464 11.7571472 0 0 Z " fill="#7C4A7E" transform="translate(380,246)"/>
<path d="M0 0 C7.91727801 -0.7376346 14.94564524 0.42106437 22.625 2.25 C23.92957153 2.55683716 23.92957153 2.55683716 25.26049805 2.86987305 C31.40656304 4.40161166 37.17797712 6.51398219 43 9 C43 10.32 43 11.64 43 13 C37.84741519 12.39853096 33.12976214 11.20456401 28.1875 9.625 C13.32617333 5.10049725 -1.52125786 3.53059518 -17 3 C-17 2.67 -17 2.34 -17 2 C-8.585 1.505 -8.585 1.505 0 1 C0 0.67 0 0.34 0 0 Z " fill="#89598C" transform="translate(260,123)"/>
<path d="M0 0 C0.33 0 0.66 0 1 0 C1 56.1 1 112.2 1 170 C1.66 170.33 2.32 170.66 3 171 C2.01 171.99 2.01 171.99 1 173 C0.01 172.67 -0.98 172.34 -2 172 C-1.34 115.24 -0.68 58.48 0 0 Z " fill="#E8D1E8" transform="translate(320,176)"/>
<path d="M0 0 C0.33 0 0.66 0 1 0 C1 49.17 1 98.34 1 149 C-1.31 149 -3.62 149 -6 149 C-5.360625 148.649375 -4.72125 148.29875 -4.0625 147.9375 C-1.2152908 145.26284893 -1.2527031 142.73246827 -1 139 C-0.87161937 134.51706529 -0.88400964 130.03768067 -0.90234375 125.55322266 C-0.90426517 124.1942246 -0.90572791 122.83522583 -0.9067688 121.47622681 C-0.90991797 118.56194352 -0.91616822 115.64768956 -0.92483521 112.73341751 C-0.93839254 108.1287076 -0.94425843 103.52400729 -0.94897461 98.91928101 C-0.96005275 89.15450767 -0.97961578 79.38975766 -1 69.625 C-1.02201664 59.06198435 -1.04257291 48.49897791 -1.05341816 37.93594396 C-1.05841212 33.35417032 -1.06828757 28.77244051 -1.08184814 24.19068456 C-1.08927898 21.34994154 -1.09261743 18.50920465 -1.0948143 15.66845322 C-1.09759463 13.71373483 -1.1053963 11.75902563 -1.11331177 9.80432129 C-1.11338226 8.65190948 -1.11345276 7.49949768 -1.11352539 6.31216431 C-1.115746 5.30451838 -1.11796661 4.29687244 -1.12025452 3.25869179 C-1 1 -1 1 0 0 Z " fill="#501851" transform="translate(295,212)"/>
<path d="M0 0 C0.495 0.99 0.495 0.99 1 2 C-6.26 2 -13.52 2 -21 2 C-21 12.56 -21 23.12 -21 34 C-38.49 34 -55.98 34 -74 34 C-74 33.67 -74 33.34 -74 33 C-58.16 32.67 -42.32 32.34 -26 32 C-24.22073751 27.55184378 -23.7667297 25.84216614 -23.875 21.33203125 C-23.89046875 20.27435547 -23.9059375 19.21667969 -23.921875 18.12695312 C-23.94765625 17.03318359 -23.9734375 15.93941406 -24 14.8125 C-24.05086401 12.63170553 -24.09298308 10.45068383 -24.125 8.26953125 C-24.14820313 7.30635986 -24.17140625 6.34318848 -24.1953125 5.35083008 C-24 3 -24 3 -22 1 C-18.76953125 0.5859375 -18.76953125 0.5859375 -14.8125 0.375 C-13.51957031 0.30023438 -12.22664063 0.22546875 -10.89453125 0.1484375 C-7.25805215 0.00983549 -3.63863834 -0.02831625 0 0 Z " fill="#5B245E" transform="translate(282,246)"/>
<path d="M0 0 C0.33 0 0.66 0 1 0 C1.01458252 0.72888428 1.02916504 1.45776855 1.04418945 2.20874023 C1.43730296 20.55076961 1.43730296 20.55076961 4.11767578 38.65380859 C5.19396657 44.03801169 4.78083056 47.84496418 3 53 C0.73818412 49.13861163 -0.11844193 45.00078775 -1.125 40.6875 C-1.30675781 39.95337891 -1.48851563 39.21925781 -1.67578125 38.46289062 C-3.00110096 32.84772029 -3.86753945 27.60261835 -2 22 C-1.34 22 -0.68 22 0 22 C0 14.74 0 7.48 0 0 Z " fill="#855888" transform="translate(126,240)"/>
<path d="M0 0 C2.51083114 1.25541557 2.87125446 2.50063488 4 5 C-2.63839041 11.86555967 -9.3650816 18.21998585 -17 24 C-17.33 23.01 -17.66 22.02 -18 21 C-18.66 20.34 -19.32 19.68 -20 19 C-18.948125 18.278125 -17.89625 17.55625 -16.8125 16.8125 C-13.5366415 14.46884973 -10.78411091 11.92331645 -8 9 C-6.15347783 7.18109675 -4.30390543 5.36535076 -2.453125 3.55078125 C-0.90358196 2.04486026 -0.90358196 2.04486026 0 0 Z " fill="#8E5E8F" transform="translate(346,334)"/>
<path d="M0 0 C0.33 0 0.66 0 1 0 C4.14597061 15.37405875 4.342363 30.34435461 4 46 C3.67 46 3.34 46 3 46 C2.67 41.71 2.34 37.42 2 33 C1.67 34.98 1.34 36.96 1 39 C0.67 39 0.34 39 0 39 C-0.04898437 37.89785156 -0.09796875 36.79570312 -0.1484375 35.66015625 C-0.65902304 25.03573191 -1.62496637 14.54637441 -3 4 C-2.34 4 -1.68 4 -1 4 C-0.67 2.68 -0.34 1.36 0 0 Z " fill="#845286" transform="translate(378,220)"/>
<path d="M0 0 C1.52102323 0.14383922 3.04180897 0.29019014 4.5625 0.4375 C5.40941406 0.51871094 6.25632813 0.59992188 7.12890625 0.68359375 C9.15442758 0.90681447 11.17433327 1.18420914 13.1875 1.5 C17.9345668 2.12256614 22.6570748 2.35256052 27.4375 2.5625 C28.35982422 2.60568359 29.28214844 2.64886719 30.23242188 2.69335938 C32.48816163 2.79854931 34.74399499 2.90069107 37 3 C37 3.33 37 3.66 37 4 C29.08 4.495 29.08 4.495 21 5 C27.93 5.33 34.86 5.66 42 6 C42 6.33 42 6.66 42 7 C26.36437845 7.32581173 11.31800866 7.40400193 -4 4 C-2.68 3.67 -1.36 3.34 0 3 C0 2.01 0 1.02 0 0 Z " fill="#8A578B" transform="translate(224,375)"/>
<path d="M0 0 C0.33 0 0.66 0 1 0 C0.67 10.23 0.34 20.46 0 31 C-0.66 31 -1.32 31 -2 31 C-2 31.99 -2 32.98 -2 34 C-2.66 34 -3.32 34 -4 34 C-4.08760181 29.81263332 -4.14059435 25.62550469 -4.1875 21.4375 C-4.21263672 20.25607422 -4.23777344 19.07464844 -4.26367188 17.85742188 C-4.31746276 11.45630691 -4.19867581 6.61581119 -1 1 C-0.67 0.67 -0.34 0.34 0 0 Z " fill="#723873" transform="translate(126,231)"/>
<path d="M0 0 C1.1859375 0.00902344 2.371875 0.01804687 3.59375 0.02734375 C6.47938907 0.05061503 9.36457855 0.08330316 12.25 0.125 C11.59 0.764375 10.93 1.40375 10.25 2.0625 C8.13397569 3.76582319 8.13397569 3.76582319 8.25 5.125 C0.66 5.125 -6.93 5.125 -14.75 5.125 C-15.08 4.135 -15.41 3.145 -15.75 2.125 C-16.74 2.62 -16.74 2.62 -17.75 3.125 C-20.4223621 3.25915472 -23.07250488 3.16818541 -25.75 3.125 C-25.75 2.795 -25.75 2.465 -25.75 2.125 C-17.08732165 0.3731086 -8.82396723 -0.12976422 0 0 Z " fill="#7B407A" transform="translate(252.75,121.875)"/>
<path d="M0 0 C3.6110861 3.41047021 6.25445286 6.88167929 9 11 C10.64646685 12.68662458 12.31183067 14.35511706 14 16 C15.02813611 17.31175986 16.04084432 18.6369893 17 20 C15.68 20 14.36 20 13 20 C12.67 20.66 12.34 21.32 12 22 C-2 6.38297872 -2 6.38297872 -2 3 C-1.34 2.67 -0.68 2.34 0 2 C0 1.34 0 0.68 0 0 Z " fill="#814D83" transform="translate(147,322)"/>
<path d="M0 0 C0.33 0.66 0.66 1.32 1 2 C2.94240074 2.69810523 2.94240074 2.69810523 5.3125 3.25 C15.7273569 6.21297494 26.09910231 11.8766874 35 18 C35 18.66 35 19.32 35 20 C35.598125 20.28875 36.19625 20.5775 36.8125 20.875 C39 22 39 22 42 24 C42 24.66 42 25.32 42 26 C41.01 26.33 40.02 26.66 39 27 C38.71125 26.360625 38.4225 25.72125 38.125 25.0625 C37.17176549 22.84793921 37.17176549 22.84793921 35 22 C35 25.63 35 29.26 35 33 C34.01 33.495 34.01 33.495 33 34 C33.33 30.7 33.66 27.4 34 24 C33.21625 24.515625 32.4325 25.03125 31.625 25.5625 C30.75875 26.036875 29.8925 26.51125 29 27 C28.34 26.67 27.68 26.34 27 26 C28.98 24.35 30.96 22.7 33 21 C23.50990174 10.6866643 8.88465748 6.39561876 -4 2 C-2.68 1.34 -1.36 0.68 0 0 Z " fill="#D9C1DA" transform="translate(287,139)"/>
<path d="M0 0 C0 0.99 0 1.98 0 3 C-5.06792735 4.65776005 -9.29465204 5.23859717 -14.68359375 5.1953125 C-15.73414696 5.19106766 -15.73414696 5.19106766 -16.80592346 5.18673706 C-19.0166317 5.17564885 -21.22691671 5.15056703 -23.4375 5.125 C-24.94725972 5.11495546 -26.45702588 5.1058322 -27.96679688 5.09765625 C-31.64466597 5.07574714 -35.3222916 5.04129758 -39 5 C-35.1379052 2.87547681 -31.71090729 2.64522178 -27.375 2.5 C-21.84045769 2.24590426 -16.6738496 1.65062767 -11.26171875 0.41015625 C-7.48836357 -0.27413096 -3.82423656 -0.12336247 0 0 Z " fill="#6F3871" transform="translate(280,376)"/>
<path d="M0 0 C1.89355469 0.27905273 1.89355469 0.27905273 4 1 C5.31074482 3.7206974 6.31158896 6.21614611 7.25 9.0625 C7.518125 9.80177734 7.78625 10.54105469 8.0625 11.30273438 C9.80746804 16.39074069 10.26820985 20.62970739 10 26 C8.09277344 25.72753906 8.09277344 25.72753906 6 25 C4.8595281 22.20284261 4.01196636 19.64930598 3.25 16.75 C3.02957031 15.98558594 2.80914062 15.22117188 2.58203125 14.43359375 C1.48899136 10.50272358 0.8501851 7.1049282 1 3 C0.67 2.01 0.34 1.02 0 0 Z " fill="#8A5A8B" transform="translate(368,199)"/>
<path d="M0 0 C0.33 0 0.66 0 1 0 C1.01213028 1.51549942 1.01213028 1.51549942 1.02450562 3.06161499 C1.10187945 12.56773496 1.18959623 22.07371026 1.28752708 31.57964134 C1.33754354 36.46712767 1.38387293 41.35459182 1.421875 46.2421875 C1.45866045 50.95607243 1.50500165 55.66977412 1.55806351 60.38350296 C1.57664342 62.18485943 1.59173798 63.98625523 1.60334396 65.78767014 C1.62014518 68.30443978 1.64916452 70.82078647 1.68115234 73.33740234 C1.68331253 74.08762161 1.68547272 74.83784088 1.68769836 75.61079407 C1.62644235 79.76035102 1.62644235 79.76035102 4 83 C2.68 83.99 1.36 84.98 0 86 C0 57.62 0 29.24 0 0 Z " fill="#551259" transform="translate(284,257)"/>
<path d="M0 0 C1.48439575 -0.00229614 1.48439575 -0.00229614 2.9987793 -0.00463867 C9.96929951 0.10453301 9.96929951 0.10453301 13.375 2.375 C12.42415527 2.35143433 12.42415527 2.35143433 11.45410156 2.32739258 C-3.84462 1.79223561 -3.84462 1.79223561 -18.77734375 4.58203125 C-23.57939147 5.91922698 -28.52889657 6.31195474 -33.47265625 6.84765625 C-36.77446333 7.17866478 -36.77446333 7.17866478 -39.625 9.375 C-40.945 9.375 -42.265 9.375 -43.625 9.375 C-43.625 8.715 -43.625 8.055 -43.625 7.375 C-29.24723222 2.86496128 -15.11776015 0.01313653 0 0 Z " fill="#D0B3D2" transform="translate(255.625,134.625)"/>
<path d="M0 0 C7.66220717 2.22801769 15.46749038 5.01514683 21 11 C20.01 11.33 19.02 11.66 18 12 C17.01 11.01 16.02 10.02 15 9 C14.67 9.66 14.34 10.32 14 11 C10.45756548 9.63408831 7.07372071 8.09068516 3.6875 6.375 C2.80449219 5.92898437 1.92148437 5.48296875 1.01171875 5.0234375 C0.34785156 4.68570313 -0.31601562 4.34796875 -1 4 C-0.67 2.68 -0.34 1.36 0 0 Z " fill="#804E82" transform="translate(303,133)"/>
<path d="M0 0 C4.58716587 4.44381694 8.78762713 9.20228499 13 14 C11.93453047 16.13093906 10.70840281 17.36587557 9 19 C8.1646875 17.700625 8.1646875 17.700625 7.3125 16.375 C5.76660845 14.03122894 4.10373542 11.9197377 2.25 9.8125 C-0.65783016 6.1777123 0 4.61540251 0 0 Z " fill="#835285" transform="translate(344,160)"/>
<path d="M0 0 C0.33 0 0.66 0 1 0 C2.23316854 6.38917245 2.06626999 12.50554141 2 19 C9.59 19 17.18 19 25 19 C24.67 19.66 24.34 20.32 24 21 C17.73 21 11.46 21 5 21 C4.67 21.66 4.34 22.32 4 23 C0.88177325 19.98612336 -0.27982833 17.83006174 -0.390625 13.57421875 C-0.36423849 11.94485182 -0.31682471 10.31570984 -0.25 8.6875 C-0.23195312 7.85154297 -0.21390625 7.01558594 -0.1953125 6.15429688 C-0.14841126 4.10236772 -0.07667411 2.05103244 0 0 Z " fill="#551957" transform="translate(219,247)"/>
<path d="M0 0 C0.28875 0.928125 0.5775 1.85625 0.875 2.8125 C1.8875 6.09791667 1.8875 6.09791667 4 9 C0.83884224 7.63016497 0.0072908 7.0109362 -2 4 C-2 15.88 -2 27.76 -2 40 C-4.13576809 35.72846381 -4.34222613 32.5858507 -4.4140625 27.953125 C-4.43342865 27.18192322 -4.4527948 26.41072144 -4.4727478 25.6161499 C-4.53237077 23.16087795 -4.57885914 20.70555867 -4.625 18.25 C-4.66319575 16.58201118 -4.70224841 14.91404174 -4.7421875 13.24609375 C-4.83805791 9.16422057 -4.92215235 5.08225507 -5 1 C-2 0 -2 0 0 0 Z " fill="#723D74" transform="translate(222,154)"/>
<path d="M0 0 C2.04159095 -0.0272616 4.08328963 -0.04651345 6.125 -0.0625 C7.26195312 -0.07410156 8.39890625 -0.08570313 9.5703125 -0.09765625 C13 0 13 0 15.82226562 0.5 C19.0342039 1.00538181 22.02454658 1.11373987 25.2734375 1.09765625 C26.42714844 1.09443359 27.58085937 1.09121094 28.76953125 1.08789062 C30.55423828 1.07532227 30.55423828 1.07532227 32.375 1.0625 C33.58800781 1.05798828 34.80101562 1.05347656 36.05078125 1.04882812 C39.03390507 1.03708354 42.01692679 1.0206584 45 1 C45 1.33 45 1.66 45 2 C29.14604883 4.59217888 15.73261444 3.60784557 0 1 C0 0.67 0 0.34 0 0 Z " fill="#C7ACC8" transform="translate(227,367)"/>
<path d="M0 0 C1.72990025 0.93614567 3.45888696 1.87397958 5.1875 2.8125 C6.15042969 3.33457031 7.11335937 3.85664063 8.10546875 4.39453125 C9.06066406 4.92433594 10.01585937 5.45414063 11 6 C11.94488281 6.51949219 12.88976562 7.03898438 13.86328125 7.57421875 C14.56839844 8.04472656 15.27351563 8.51523438 16 9 C16 9.66 16 10.32 16 11 C16.61875 11.0825 17.2375 11.165 17.875 11.25 C20 12 20 12 21.25 14.0625 C21.4975 14.701875 21.745 15.34125 22 16 C19.24038412 14.78576901 17.00201117 13.26110502 14.625 11.4375 C11.4834748 9.13054845 8.94398198 8.28858405 5 8 C4.67 8.66 4.34 9.32 4 10 C3.01 10 2.02 10 1 10 C0.67 6.7 0.34 3.4 0 0 Z " fill="#8D598F" transform="translate(246,212)"/>
<path d="M0 0 C0.99 0 1.98 0 3 0 C2.85562749 6.92988052 -0.22255343 10.19760593 -5 15 C-6.32 14.34 -7.64 13.68 -9 13 C-8.07582112 11.59661725 -7.14916346 10.19481202 -6.2109375 8.80078125 C-5.37301518 7.55470967 -4.54553605 6.30157534 -3.7265625 5.04296875 C-2.56063757 3.30821378 -1.28551294 1.64809352 0 0 Z " fill="#7E4D80" transform="translate(356,322)"/>
<path d="M0 0 C5.66104589 0.49658297 9.87674471 1.54510684 15 4 C15 5.32 15 6.64 15 8 C9.34979382 7.39891424 4.33835539 5.92471317 -1 4 C-0.67 2.68 -0.34 1.36 0 0 Z " fill="#814D82" transform="translate(288,128)"/>
<path d="M0 0 C0.33 1.32 0.66 2.64 1 4 C-4.54198634 5.19826732 -12.75400551 6.62299724 -18 4 C-18 3.34 -18 2.68 -18 2 C-14.7206743 0.90689143 -11.88253463 0.67999964 -8.4375 0.4375 C-6.70306641 0.31181641 -6.70306641 0.31181641 -4.93359375 0.18359375 C-3.29113754 0.08080355 -1.64566953 0 0 0 Z " fill="#7D4E7D" transform="translate(237,124)"/>
<path d="M0 0 C5.19209404 -0.21192221 9.126739 0.4087311 14 2 C14 3.32 14 4.64 14 6 C8.34605369 6.34615998 4.96993194 5.43425238 0 3 C0 2.01 0 1.02 0 0 Z " fill="#6E3470" transform="translate(210,372)"/>
<path d="M0 0 C0.33 0 0.66 0 1 0 C1.33 16.17 1.66 32.34 2 49 C2.66 49.33 3.32 49.66 4 50 C3.34 50.66 2.68 51.32 2 52 C1.01 51.67 0.02 51.34 -1 51 C-0.67 34.17 -0.34 17.34 0 0 Z " fill="#DBC4DB" transform="translate(319,297)"/>
<path d="M0 0 C0 3 0 3 -2.375 5.5625 C-3.674375 6.7690625 -3.674375 6.7690625 -5 8 C-7.2059511 9.79112168 -7.2059511 9.79112168 -7.25 12.1875 C-8.34197224 16.28239591 -10.8191737 19.228882 -14 22 C-16.19921875 22.703125 -16.19921875 22.703125 -18 23 C-16.62567077 18.99153975 -14.7110562 16.23577676 -12 13 C-11.67 12.34 -11.34 11.68 -11 11 C-10.34 11 -9.68 11 -9 11 C-8.773125 10.443125 -8.54625 9.88625 -8.3125 9.3125 C-6.63575448 6.35823409 -4.45423315 4.33152149 -2 2 C-1.34 1.34 -0.68 0.68 0 0 Z " fill="#B391B5" transform="translate(171,168)"/>
<path d="M0 0 C3.96 0 7.92 0 12 0 C12 1.32 12 2.64 12 4 C2.30472178 4.19219715 -7.32867432 3.59581324 -17 3 C-17 2.67 -17 2.34 -17 2 C-8.585 1.505 -8.585 1.505 0 1 C0 0.67 0 0.34 0 0 Z " fill="#6D396F" transform="translate(260,123)"/>
<path d="M0 0 C-2.20803678 4.41607356 -4.63395181 6.68332137 -9 9 C-11.375 8.75 -11.375 8.75 -13 8 C-12.62642278 5.39611102 -12.28877098 4.25705243 -10.29296875 2.48046875 C-9.59816406 2.05378906 -8.90335937 1.62710937 -8.1875 1.1875 C-7.50042969 0.74792969 -6.81335938 0.30835938 -6.10546875 -0.14453125 C-3.60705494 -1.15965671 -2.48957835 -0.91191297 0 0 Z " fill="#7E4C81" transform="translate(329,355)"/>
<path d="M0 0 C5.69051363 0.5381371 11.34865884 1.1400133 17 2 C17 2.33 17 2.66 17 3 C15.02 3.33 13.04 3.66 11 4 C11 4.66 11 5.32 11 6 C5.9697924 5.47462276 0.98114761 4.89405214 -4 4 C-2.68 3.67 -1.36 3.34 0 3 C0 2.01 0 1.02 0 0 Z " fill="#8E6291" transform="translate(224,375)"/>
<path d="M0 0 C3.35447625 1.17859976 5.83924737 2.1189965 8 5 C9.1875 8.1875 9.1875 8.1875 10 11 C6 11 6 11 4.04296875 9.35546875 C3.43066406 8.64003906 2.81835938 7.92460937 2.1875 7.1875 C1.24970703 6.12595703 1.24970703 6.12595703 0.29296875 5.04296875 C-0.13371094 4.36878906 -0.56039063 3.69460937 -1 3 C-0.67 2.01 -0.34 1.02 0 0 Z " fill="#754476" transform="translate(336,154)"/>
<path d="M0 0 C0.33 0 0.66 0 1 0 C1 8.91 1 17.82 1 27 C0.34 27.33 -0.32 27.66 -1 28 C-1.33 28.99 -1.66 29.98 -2 31 C-1.34 31.33 -0.68 31.66 0 32 C-0.33 33.98 -0.66 35.96 -1 38 C-1.33 38 -1.66 38 -2 38 C-2.19504458 35.89651926 -2.38078496 33.79217415 -2.5625 31.6875 C-2.66691406 30.51574219 -2.77132812 29.34398437 -2.87890625 28.13671875 C-3 25 -3 25 -2 22 C-1.34 22 -0.68 22 0 22 C0 14.74 0 7.48 0 0 Z " fill="#A77EA8" transform="translate(126,240)"/>
<path d="M0 0 C0.33 0.99 0.66 1.98 1 3 C1.99 3.33 2.98 3.66 4 4 C-0.455 7.465 -0.455 7.465 -5 11 C-5.33 10.34 -5.66 9.68 -6 9 C-6.99 8.67 -7.98 8.34 -9 8 C-6.03 5.36 -3.06 2.72 0 0 Z " fill="#804D80" transform="translate(171,150)"/>
<path d="M0 0 C0.33 0 0.66 0 1 0 C3.81573751 5.96273825 2.75822476 11.6677986 2 18 C1.67 18 1.34 18 1 18 C0.67 16.35 0.34 14.7 0 13 C-0.99 14.32 -1.98 15.64 -3 17 C-2.48517081 11.147205 -1.54642808 5.6702363 0 0 Z " fill="#926393" transform="translate(126,219)"/>
<path d="M0 0 C-2.97 0.66 -5.94 1.32 -9 2 C-7.02 2.66 -5.04 3.32 -3 4 C-6.53411321 6.12046792 -9.94393835 6.53199289 -14 7 C-14.33 6.34 -14.66 5.68 -15 5 C-15.99 4.34 -16.98 3.68 -18 3 C-15.75376301 2.30030318 -13.50283586 1.61564957 -11.25 0.9375 C-9.99703125 0.55464844 -8.7440625 0.17179687 -7.453125 -0.22265625 C-4 -1 -4 -1 0 0 Z " fill="#906493" transform="translate(294,372)"/>
<path d="M0 0 C0.33 0.99 0.66 1.98 1 3 C-7.25 3 -15.5 3 -24 3 C-19.8009199 0.90045995 -16.56407304 0.57343796 -12 0.375 C-11.2884375 0.33632813 -10.576875 0.29765625 -9.84375 0.2578125 C-6.5566435 0.08609798 -3.29232422 0 0 0 Z " fill="#541457" transform="translate(265,378)"/>
<path d="M0 0 C1.65 0 3.3 0 5 0 C5 1.32 5 2.64 5 4 C0.23947038 5.97387813 -2.96488101 6.0070238 -8 5 C-8.33 5.66 -8.66 6.32 -9 7 C-9 6.01 -9 5.02 -9 4 C-6.03 3.34 -3.06 2.68 0 2 C0 1.34 0 0.68 0 0 Z " fill="#7D4A81" transform="translate(294,370)"/>
<path d="M0 0 C2.3125 0.5625 2.3125 0.5625 5 2 C6.34776978 4.27962623 7.11364216 6.48087772 8 9 C6.68 9.33 5.36 9.66 4 10 C0 4.5 0 4.5 0 0 Z " fill="#744175" transform="translate(140,315)"/>
<path d="M0 0 C0.66 0 1.32 0 2 0 C2 0.66 2 1.32 2 2 C4.31 2.33 6.62 2.66 9 3 C9 3.66 9 4.32 9 5 C9.66 5.33 10.32 5.66 11 6 C11.29648437 6.61359375 11.59296875 7.2271875 11.8984375 7.859375 C13.15349078 10.29827286 14.50933995 11.52612885 16.625 13.25 C17.25664062 13.77078125 17.88828125 14.2915625 18.5390625 14.828125 C19.02117187 15.21484375 19.50328125 15.6015625 20 16 C16.08978232 16 15.04665804 14.70912572 12.0625 12.25 C11.20785156 11.55390625 10.35320312 10.8578125 9.47265625 10.140625 C7.20621044 8.17852026 5.09118551 6.14585702 3 4 C2.4225 3.443125 1.845 2.88625 1.25 2.3125 C0 1 0 1 0 0 Z " fill="#CAADCB" transform="translate(248,182)"/>
<path d="M0 0 C2.81997105 0.59367811 4.30658966 1.50819745 6.375 3.5 C6.375 4.16 6.375 4.82 6.375 5.5 C5.385 5.83 4.395 6.16 3.375 6.5 C3.08625 5.860625 2.7975 5.22125 2.5 4.5625 C1.54676549 2.34793921 1.54676549 2.34793921 -0.625 1.5 C-0.625 5.13 -0.625 8.76 -0.625 12.5 C-1.615 12.995 -1.615 12.995 -2.625 13.5 C-2.295 10.2 -1.965 6.9 -1.625 3.5 C-2.40875 4.015625 -3.1925 4.53125 -4 5.0625 C-4.86625 5.536875 -5.7325 6.01125 -6.625 6.5 C-7.285 6.17 -7.945 5.84 -8.625 5.5 C-3.41092814 0.6497006 -3.41092814 0.6497006 0 0 Z " fill="#B99DBA" transform="translate(322.625,159.5)"/>
<path d="M0 0 C0.33 0.66 0.66 1.32 1 2 C7.93 2.33 14.86 2.66 22 3 C22 3.33 22 3.66 22 4 C14.41 4 6.82 4 -1 4 C-1.33 3.01 -1.66 2.02 -2 1 C-2.99 1.495 -2.99 1.495 -4 2 C-6.6723621 2.13415472 -9.32250488 2.04318541 -12 2 C-12 1.67 -12 1.34 -12 1 C-7.9472484 0.01751476 -4.16138263 -0.08159574 0 0 Z " fill="#AD87AF" transform="translate(239,123)"/>
<path d="M0 0 C1.32 0.66 2.64 1.32 4 2 C2.6302836 5.99500618 0.74277578 8.80009492 -2 12 C-2 10.68 -2 9.36 -2 8 C-2.66 7.67 -3.32 7.34 -4 7 C-2.68 4.69 -1.36 2.38 0 0 Z " fill="#865889" transform="translate(361,314)"/>
<path d="M0 0 C0.33 0 0.66 0 1 0 C1 6.6 1 13.2 1 20 C0.01 20.33 -0.98 20.66 -2 21 C-2.28100502 13.83437211 -1.20443195 7.05453001 0 0 Z " fill="#541757" transform="translate(380,246)"/>
<path d="M0 0 C0.66 0.33 1.32 0.66 2 1 C0.71034824 2.37562854 -0.62689293 3.70766393 -2 5 C-2.66 5 -3.32 5 -4 5 C-4.33 5.99 -4.66 6.98 -5 8 C-7.66137199 10.38122757 -9.5967577 11.8655859 -13 13 C-13.99 11.68 -14.98 10.36 -16 9 C-15.236875 9.226875 -14.47375 9.45375 -13.6875 9.6875 C-11.0109092 10.30349941 -11.0109092 10.30349941 -9.25 8.75 C-7.80700616 6.91116157 -7.80700616 6.91116157 -7 4 C-6.34 4 -5.68 4 -5 4 C-5 3.34 -5 2.68 -5 2 C-4.360625 1.855625 -3.72125 1.71125 -3.0625 1.5625 C-1.02454854 1.18992819 -1.02454854 1.18992819 0 0 Z " fill="#E9D8EA" transform="translate(284,190)"/>
<path d="M0 0 C0.99 0.33 1.98 0.66 3 1 C3.6875 3.0625 3.6875 3.0625 4 5 C3.34 5 2.68 5 2 5 C1.67 13.58 1.34 22.16 1 31 C0.67 31 0.34 31 0 31 C0 20.77 0 10.54 0 0 Z " fill="#551558" transform="translate(322,161)"/>
<path d="M0 0 C3.45201639 1.47721422 5.64961936 3.43794001 8.25 6.125 C8.95640625 6.84945312 9.6628125 7.57390625 10.390625 8.3203125 C11.18726563 9.15175781 11.18726563 9.15175781 12 10 C11.01 10.33 10.02 10.66 9 11 C8.67 10.34 8.34 9.68 8 9 C7.01 9.33 6.02 9.66 5 10 C3 8 3 8 2.875 5.375 C2.91625 4.59125 2.9575 3.8075 3 3 C2.01 2.67 1.02 2.34 0 2 C0 1.34 0 0.68 0 0 Z " fill="#591A5B" transform="translate(327,165)"/>
<path d="M0 0 C0.99 0 1.98 0 3 0 C4.28317892 3.84953676 4.06643637 6.94738135 4 11 C2.68 10.67 1.36 10.34 0 10 C0 6.7 0 3.4 0 0 Z " fill="#6D336F" transform="translate(374,214)"/>
<path d="M0 0 C-4.29 0.99 -8.58 1.98 -13 3 C-12.67 2.01 -12.34 1.02 -12 0 C-12.66 -0.66 -13.32 -1.32 -14 -2 C-8.80990886 -3.79657001 -4.76839559 -2.3841978 0 0 Z " fill="#946994" transform="translate(225,130)"/>
<path d="M0 0 C1.2065625 0.0309375 1.2065625 0.0309375 2.4375 0.0625 C2.03066505 2.42214273 1.53935661 3.92184088 0.125 5.875 C-1.5625 7.0625 -1.5625 7.0625 -3.75 6.75 C-4.348125 6.523125 -4.94625 6.29625 -5.5625 6.0625 C-3.26136364 0.07954545 -3.26136364 0.07954545 0 0 Z " fill="#754076" transform="translate(162.5625,158.9375)"/>
<path d="M0 0 C5.53846154 0.61538462 5.53846154 0.61538462 7.875 2.5625 C8.431875 3.2740625 8.431875 3.2740625 9 4 C8.01 5.485 8.01 5.485 7 7 C4.625 6.3125 4.625 6.3125 2 5 C0.6875 2.375 0.6875 2.375 0 0 Z " fill="#79437B" transform="translate(181,358)"/>
<path d="M0 0 C2 2 2 2 2.9375 5.5625 C3.288125 6.696875 3.63875 7.83125 4 9 C4.99 9.33 5.98 9.66 7 10 C8.35439668 12.70879335 8.06501451 15.00933268 8 18 C4.9752109 15.44533941 3.79379389 12.62983727 2.3125 9 C1.87550781 7.948125 1.43851563 6.89625 0.98828125 5.8125 C0 3 0 3 0 0 Z " fill="#B997BB" transform="translate(142,291)"/>
<path d="M0 0 C0.86625 0.5259375 0.86625 0.5259375 1.75 1.0625 C4.35801776 2.14917407 5.39417629 1.93065133 8 1 C8.12375 2.175625 8.12375 2.175625 8.25 3.375 C8.72806339 6.14749104 8.72806339 6.14749104 11.0625 7.3125 C11.701875 7.539375 12.34125 7.76625 13 8 C13 8.66 13 9.32 13 10 C7.65978754 8.49806525 3.86352256 4.82517494 0 1 C0 0.67 0 0.34 0 0 Z " fill="#B08BB1" transform="translate(176,341)"/>
<path d="M0 0 C1.32 0.66 2.64 1.32 4 2 C4 2.66 4 3.32 4 4 C4.66 4.33 5.32 4.66 6 5 C6 6.32 6 7.64 6 9 C5.01 9 4.02 9 3 9 C3 8.34 3 7.68 3 7 C1.7934375 6.566875 1.7934375 6.566875 0.5625 6.125 C-2 5 -2 5 -3 3 C-1.68 3.33 -0.36 3.66 1 4 C0.67 2.68 0.34 1.36 0 0 Z " fill="#996F9B" transform="translate(331,149)"/>
<path d="M0 0 C4.43090471 1.20842856 6.98112756 2.51668565 10 6 C9.01 6.33 8.02 6.66 7 7 C6.01 6.01 5.02 5.02 4 4 C3.67 4.66 3.34 5.32 3 6 C0.525 5.01 0.525 5.01 -2 4 C-1.34 3.67 -0.68 3.34 0 3 C0 2.01 0 1.02 0 0 Z " fill="#8F638F" transform="translate(314,138)"/>
<path d="M0 0 C4.455 0.99 4.455 0.99 9 2 C7.03617993 3.50559539 5.21736634 4.89131683 3 6 C1.0546875 5.44140625 1.0546875 5.44140625 -1.125 4.5625 C-1.84945312 4.27503906 -2.57390625 3.98757813 -3.3203125 3.69140625 C-4.15175781 3.34916016 -4.15175781 3.34916016 -5 3 C-1.125 2 -1.125 2 0 2 C0 1.34 0 0.68 0 0 Z " fill="#9D74A0" transform="translate(205,369)"/>
<path d="M0 0 C3.40364888 1.39935885 4.90806188 2.87004732 6.8125 6 C7.25207031 6.70125 7.69164062 7.4025 8.14453125 8.125 C8.42683594 8.74375 8.70914062 9.3625 9 10 C8.67 10.66 8.34 11.32 8 12 C7.01 11.67 6.02 11.34 5 11 C5 10.34 5 9.68 5 9 C4.34 9 3.68 9 3 9 C3 7.02 3 5.04 3 3 C2.01 2.67 1.02 2.34 0 2 C0 1.34 0 0.68 0 0 Z " fill="#AE8AB1" transform="translate(341,177)"/>
<path d="M0 0 C1.15242188 0.00902344 2.30484375 0.01804688 3.4921875 0.02734375 C4.36101562 0.03894531 5.22984375 0.05054688 6.125 0.0625 C6.125 0.3925 6.125 0.7225 6.125 1.0625 C-1.6277507 2.57787186 -8.97542938 3.34240605 -16.875 3.0625 C-11.53365566 -0.01904481 -6.04022796 -0.06163498 0 0 Z " fill="#76447A" transform="translate(252.875,135.9375)"/>
<path d="M0 0 C0.33 1.32 0.66 2.64 1 4 C-2.96 3.67 -6.92 3.34 -11 3 C-11 2.34 -11 1.68 -11 1 C-9.54182203 0.83197949 -8.0834516 0.66562857 -6.625 0.5 C-5.81289062 0.4071875 -5.00078125 0.314375 -4.1640625 0.21875 C-2 0 -2 0 0 0 Z " fill="#692C6D" transform="translate(237,124)"/>
<path d="M0 0 C3.375 0.25 3.375 0.25 7 1 C7.66 2.32 8.32 3.64 9 5 C6.03 4.67 3.06 4.34 0 4 C0 2.68 0 1.36 0 0 Z " fill="#69326B" transform="translate(198,367)"/>
<path d="M0 0 C0.66 0.66 1.32 1.32 2 2 C1.9765625 4.1640625 1.9765625 4.1640625 1.625 6.625 C1.51414062 7.44226563 1.40328125 8.25953125 1.2890625 9.1015625 C1.19367188 9.72804688 1.09828125 10.35453125 1 11 C0.34 11 -0.32 11 -1 11 C-2.23076923 4.6 -2.23076923 4.6 -1.0625 1.5625 C-0.711875 1.046875 -0.36125 0.53125 0 0 Z " fill="#652E6A" transform="translate(374,285)"/>
<path d="M0 0 C0.99 1.32 1.98 2.64 3 4 C2.67 4.66 2.34 5.32 2 6 C1.34 5.67 0.68 5.34 0 5 C0.66 6.32 1.32 7.64 2 9 C1.34 9.66 0.68 10.32 0 11 C-3 5.375 -3 5.375 -3 2 C-2.01 2 -1.02 2 0 2 C0 1.34 0 0.68 0 0 Z " fill="#8E5F8F" transform="translate(368,194)"/>
<path d="M0 0 C1.32 0 2.64 0 4 0 C3.67 1.65 3.34 3.3 3 5 C1.35 5.33 -0.3 5.66 -2 6 C-1.125 1.125 -1.125 1.125 0 0 Z " fill="#733C75" transform="translate(174,147)"/>
<path d="M0 0 C5.75 -0.125 5.75 -0.125 8 1 C8 2.32 8 3.64 8 5 C5.69 4.67 3.38 4.34 1 4 C0.67 2.68 0.34 1.36 0 0 Z " fill="#774478" transform="translate(295,131)"/>
<path d="M0 0 C1.54571278 2.31856917 2.79618552 4.50638429 4 7 C2.68 6.67 1.36 6.34 0 6 C-0.33 6.66 -0.66 7.32 -1 8 C-4 3.25 -4 3.25 -4 1 C-2.68 1.33 -1.36 1.66 0 2 C0 1.34 0 0.68 0 0 Z " fill="#926393" transform="translate(140,309)"/>
<path d="M0 0 C0.33 0 0.66 0 1 0 C1.33 3.3 1.66 6.6 2 10 C1.34 9.67 0.68 9.34 0 9 C-0.33 10.65 -0.66 12.3 -1 14 C-1.33 14 -1.66 14 -2 14 C-2.33 10.7 -2.66 7.4 -3 4 C-2.34 4 -1.68 4 -1 4 C-0.67 2.68 -0.34 1.36 0 0 Z " fill="#9D709F" transform="translate(378,220)"/>
<path d="M0 0 C0.28875 0.928125 0.5775 1.85625 0.875 2.8125 C1.8875 6.09791667 1.8875 6.09791667 4 9 C0.83884224 7.63016497 0.0072908 7.0109362 -2 4 C-2.33 5.65 -2.66 7.3 -3 9 C-3.33 9 -3.66 9 -4 9 C-4.33 6.36 -4.66 3.72 -5 1 C-2 0 -2 0 0 0 Z " fill="#89558B" transform="translate(222,154)"/>
<path d="M0 0 C1.65 0 3.3 0 5 0 C4.67 0.99 4.34 1.98 4 3 C-2.93 3 -9.86 3 -17 3 C-17 2.67 -17 2.34 -17 2 C-8.585 1.505 -8.585 1.505 0 1 C0 0.67 0 0.34 0 0 Z " fill="#521551" transform="translate(260,123)"/>
<path d="M0 0 C0.33 0.66 0.66 1.32 1 2 C-0.52994792 3.23697917 -2.05989583 4.47395833 -3.58984375 5.7109375 C-5.13266437 6.9666391 -5.13266437 6.9666391 -6 9 C-8.4375 10.6875 -8.4375 10.6875 -11 12 C-11.66 11.67 -12.32 11.34 -13 11 C-11.21079529 9.3514184 -9.4187995 7.70606879 -7.625 6.0625 C-6.86316406 5.35963867 -6.86316406 5.35963867 -6.0859375 4.64257812 C-2.2265625 1.11328125 -2.2265625 1.11328125 0 0 Z " fill="#E7D3E8" transform="translate(299,178)"/>
<path d="M0 0 C2.64 0 5.28 0 8 0 C8 0.66 8 1.32 8 2 C10.97 3.485 10.97 3.485 14 5 C10.08428299 6.305239 8.96107003 5.32239848 5.3125 3.5625 C4.31863281 3.08941406 3.32476562 2.61632812 2.30078125 2.12890625 C1.54152344 1.75636719 0.78226563 1.38382812 0 1 C0 0.67 0 0.34 0 0 Z " fill="#B996BA" transform="translate(199,357)"/>
<path d="M0 0 C0.66 0.33 1.32 0.66 2 1 C1.67 1.66 1.34 2.32 1 3 C1.66 3.66 2.32 4.32 3 5 C1.02 6.32 -0.96 7.64 -3 9 C-3 8.01 -3 7.02 -3 6 C-3.66 5.34 -4.32 4.68 -5 4 C-3.35 2.68 -1.7 1.36 0 0 Z " fill="#966996" transform="translate(331,349)"/>
<path d="M0 0 C0.66 0 1.32 0 2 0 C2.66 0.66 3.32 1.32 4 2 C4.66 1.34 5.32 0.68 6 0 C7.32 1.65 8.64 3.3 10 5 C8.68 5 7.36 5 6 5 C5.67 5.66 5.34 6.32 5 7 C0 1.125 0 1.125 0 0 Z " fill="#956A94" transform="translate(154,337)"/>
<path d="M0 0 C2.0625 1.5625 2.0625 1.5625 4 4 C3.75 7.75 3.75 7.75 3 11 C2.34 9.68 1.68 8.36 1 7 C0.01 7.66 -0.98 8.32 -2 9 C-1.34 6.03 -0.68 3.06 0 0 Z " fill="#946697" transform="translate(374,280)"/>
<path d="M0 0 C0.66 0 1.32 0 2 0 C2.33 3.96 2.66 7.92 3 12 C2.01 11.67 1.02 11.34 0 11 C0.020625 10.0925 0.04125 9.185 0.0625 8.25 C0.01073123 5.5580237 -0.33569365 3.56232449 -1 1 C-0.67 0.67 -0.34 0.34 0 0 Z " fill="#531455" transform="translate(125,267)"/>
<path d="M0 0 C0.33 0 0.66 0 1 0 C1 2.97 1 5.94 1 9 C-0.32 8.67 -1.64 8.34 -3 8 C-2.25 2.25 -2.25 2.25 0 0 Z " fill="#5A1D5F" transform="translate(126,231)"/>
<path d="M0 0 C3.21764451 4.82646677 4.36261136 10.19821824 4 16 C2.0549 13.08235 1.54723683 11.37462715 1 8 C0.34 8 -0.32 8 -1 8 C-0.67 5.36 -0.34 2.72 0 0 Z " fill="#BB97BE" transform="translate(363,215)"/>
<path d="M0 0 C2.31 0 4.62 0 7 0 C7.33 0.99 7.66 1.98 8 3 C8.66 3.33 9.32 3.66 10 4 C7.69 4 5.38 4 3 4 C2.67 3.01 2.34 2.02 2 1 C1.34 0.67 0.68 0.34 0 0 Z " fill="#875687" transform="translate(263,377)"/>
<path d="M0 0 C3.625 0.1875 3.625 0.1875 6.625 2.1875 C3.655 2.8475 0.685 3.5075 -2.375 4.1875 C-3.035 3.1975 -3.695 2.2075 -4.375 1.1875 C-3.375 0.1875 -3.375 0.1875 0 0 Z " fill="#753F75" transform="translate(213.375,371.8125)"/>
<path d="M0 0 C2.475 0.99 2.475 0.99 5 2 C3.95125002 4.62187494 3.35068687 5.79371361 0.875 7.25 C0.25625 7.4975 -0.3625 7.745 -1 8 C-1 6.68 -1 5.36 -1 4 C-0.34 4 0.32 4 1 4 C1 3.34 1 2.68 1 2 C0.34 1.67 -0.32 1.34 -1 1 C-0.67 0.67 -0.34 0.34 0 0 Z " fill="#976C98" transform="translate(330,333)"/>
<path d="M0 0 C2.125 0.375 2.125 0.375 4 1 C2.95125002 3.62187494 2.35068687 4.79371361 -0.125 6.25 C-0.74375 6.4975 -1.3625 6.745 -2 7 C-2.125 4.625 -2.125 4.625 -2 2 C-1.34 1.34 -0.68 0.68 0 0 Z " fill="#976E98" transform="translate(337,328)"/>
<path d="M0 0 C0.66 0.33 1.32 0.66 2 1 C1.01 1.78375 0.02 2.5675 -1 3.375 C-2.485 4.674375 -2.485 4.674375 -4 6 C-4 6.66 -4 7.32 -4 8 C-6.375 9.6875 -6.375 9.6875 -9 11 C-9.66 10.67 -10.32 10.34 -11 10 C-5.555 5.05 -5.555 5.05 0 0 Z " fill="#DBC2DD" transform="translate(311,167)"/>
<path d="M0 0 C0 1.65 0 3.3 0 5 C-1.65 5.66 -3.3 6.32 -5 7 C-5.66 6.34 -6.32 5.68 -7 5 C-2.25 0 -2.25 0 0 0 Z " fill="#5E235E" transform="translate(183,160)"/>
<path d="M0 0 C1.32 1.32 2.64 2.64 4 4 C2.75 5.5 2.75 5.5 1 7 C-0.32 7 -1.64 7 -3 7 C-3 6.34 -3 5.68 -3 5 C-2.34 5 -1.68 5 -1 5 C-1.33 4.01 -1.66 3.02 -2 2 C-1.34 1.34 -0.68 0.68 0 0 Z " fill="#875889" transform="translate(324,339)"/>
<path d="M0 0 C0.433125 0.474375 0.86625 0.94875 1.3125 1.4375 C3.02309613 3.23686957 3.02309613 3.23686957 6 4 C5.67 4.99 5.34 5.98 5 7 C0.32307692 5.52307692 0.32307692 5.52307692 -1.3125 2.875 C-1.539375 2.25625 -1.76625 1.6375 -2 1 C-1.34 0.67 -0.68 0.34 0 0 Z " fill="#602763" transform="translate(268,194)"/>
<path d="M0 0 C2.5625 2.125 2.5625 2.125 5 5 C4.8125 8.3125 4.8125 8.3125 4 11 C2 9.1875 2 9.1875 0 7 C0 4.66666667 0 2.33333333 0 0 Z " fill="#956796" transform="translate(344,160)"/>
<path d="M0 0 C-9.41002278 3.25968109 -9.41002278 3.25968109 -14 4 C-14 3.34 -14 2.68 -14 2 C-12.42085985 1.46658816 -10.83645613 0.94874237 -9.25 0.4375 C-8.36828125 0.14746094 -7.4865625 -0.14257812 -6.578125 -0.44140625 C-3.92165684 -1.01697435 -2.52968894 -0.89248371 0 0 Z " fill="#BE9AC0" transform="translate(226,140)"/>
<path d="M0 0 C1.65 1.32 3.3 2.64 5 4 C4.01 4.495 4.01 4.495 3 5 C3 5.66 3 6.32 3 7 C-1.875 5.25 -1.875 5.25 -3 3 C-2.01 3 -1.02 3 0 3 C0 2.01 0 1.02 0 0 Z " fill="#936695" transform="translate(179,354)"/>
<path d="M0 0 C0.66 0 1.32 0 2 0 C2.33 2.64 2.66 5.28 3 8 C1.68 7.67 0.36 7.34 -1 7 C-0.67 4.69 -0.34 2.38 0 0 Z " fill="#6F3B70" transform="translate(130,287)"/>
<path d="M0 0 C1.98 0 3.96 0 6 0 C4.515 1.485 4.515 1.485 3 3 C3.99 3.66 4.98 4.32 6 5 C2.04 4.67 -1.92 4.34 -6 4 C-6 3.67 -6 3.34 -6 3 C-4.02 3 -2.04 3 0 3 C0 2.01 0 1.02 0 0 Z " fill="#A97FAB" transform="translate(272,124)"/>
<path d="M0 0 C0.66 0.33 1.32 0.66 2 1 C0.36587557 2.70840281 -0.86906094 3.93453047 -3 5 C-1.68 5.33 -0.36 5.66 1 6 C-1.375 6.625 -1.375 6.625 -4 7 C-4.66 6.34 -5.32 5.68 -6 5 C-6 4.34 -6 3.68 -6 3 C-4.03533587 1.93224776 -2.03144641 0.93446535 0 0 Z " fill="#996D9A" transform="translate(303,366)"/>
<path d="M0 0 C0.99 0.33 1.98 0.66 3 1 C2.34 2.32 1.68 3.64 1 5 C-0.98 5 -2.96 5 -5 5 C-3.73867769 2.47735539 -2.38561992 1.47347113 0 0 Z " fill="#5B225C" transform="translate(305,366)"/>
<path d="M0 0 C2.475 0.99 2.475 0.99 5 2 C4.67 3.65 4.34 5.3 4 7 C3.34 6.67 2.68 6.34 2 6 C2 5.34 2 4.68 2 4 C1.34 4 0.68 4 0 4 C0 2.68 0 1.36 0 0 Z " fill="#6E396D" transform="translate(154,333)"/>
<path d="M0 0 C1.64328732 3.28657463 2.62413022 5.4292371 3 9 C2.34 9.66 1.68 10.32 1 11 C1 10.01 1 9.02 1 8 C0.01 8.33 -0.98 8.66 -2 9 C-1.34 6.03 -0.68 3.06 0 0 Z " fill="#956798" transform="translate(371,290)"/>
<path d="M0 0 C2.31 0 4.62 0 7 0 C6.01 0.495 6.01 0.495 5 1 C3.86649466 3.01669827 3.86649466 3.01669827 3 5 C2.34 5 1.68 5 1 5 C1 4.34 1 3.68 1 3 C0.34 2.67 -0.32 2.34 -1 2 C-0.67 1.34 -0.34 0.68 0 0 Z " fill="#6D3A71" transform="translate(208,129)"/>
<path d="M0 0 C-0.33 0.99 -0.66 1.98 -1 3 C-3.31 2.67 -5.62 2.34 -8 2 C-8.33 2.66 -8.66 3.32 -9 4 C-9 3.01 -9 2.02 -9 1 C-3.375 -1.125 -3.375 -1.125 0 0 Z " fill="#5E2062" transform="translate(294,373)"/>
<path d="M0 0 C0.33 0.66 0.66 1.32 1 2 C1.66 2.33 2.32 2.66 3 3 C1.75 4.5625 1.75 4.5625 0 6 C-2.1875 5.6875 -2.1875 5.6875 -4 5 C-2.25 1.125 -2.25 1.125 0 0 Z " fill="#6B336D" transform="translate(335,347)"/>
<path d="M0 0 C1.5625 1.125 1.5625 1.125 3 3 C2.6875 6.1875 2.6875 6.1875 2 9 C0.35 7.35 -1.3 5.7 -3 4 C-2.01 4 -1.02 4 0 4 C0 2.68 0 1.36 0 0 Z " fill="#A278A2" transform="translate(152,328)"/>
<path d="M0 0 C0.99 0 1.98 0 3 0 C3 1.32 3 2.64 3 4 C3.99 4.33 4.98 4.66 6 5 C6 5.66 6 6.32 6 7 C4.35 6.67 2.7 6.34 1 6 C0.67 4.02 0.34 2.04 0 0 Z " fill="#672E6A" transform="translate(134,304)"/>
<path d="M0 0 C2 3 2 3 1.7578125 5.69921875 C1.44457031 7.17841797 1.44457031 7.17841797 1.125 8.6875 C0.81949219 10.17830078 0.81949219 10.17830078 0.5078125 11.69921875 C0.34023438 12.45847656 0.17265625 13.21773437 0 14 C-0.33 14 -0.66 14 -1 14 C-1.02694851 12.04174127 -1.04637218 10.08337774 -1.0625 8.125 C-1.07410156 7.03445312 -1.08570313 5.94390625 -1.09765625 4.8203125 C-1 2 -1 2 0 0 Z " fill="#744375" transform="translate(378,227)"/>
<path d="M0 0 C0.33 0.66 0.66 1.32 1 2 C1.66 2 2.32 2 3 2 C2.625 4.4375 2.625 4.4375 2 7 C1.01 7.495 1.01 7.495 0 8 C-0.66 6.02 -1.32 4.04 -2 2 C-1.34 1.34 -0.68 0.68 0 0 Z " fill="#89598B" transform="translate(149,172)"/>
<path d="M0 0 C0.66 0.33 1.32 0.66 2 1 C1.6875 3.375 1.6875 3.375 1 6 C0.01 6.66 -0.98 7.32 -2 8 C-2 6.68 -2 5.36 -2 4 C-2.66 3.67 -3.32 3.34 -4 3 C-2.68 2.01 -1.36 1.02 0 0 Z " fill="#936996" transform="translate(180,143)"/>
<path d="M0 0 C0.66 0.33 1.32 0.66 2 1 C2.625 3.0625 2.625 3.0625 3 5 C1.68 5 0.36 5 -1 5 C-1 4.34 -1 3.68 -1 3 C-2.32 2.67 -3.64 2.34 -5 2 C-2.625 0.9375 -2.625 0.9375 0 0 Z " fill="#905F92" transform="translate(206,130)"/>
<path d="M0 0 C5.75 -0.125 5.75 -0.125 8 1 C8 1.99 8 2.98 8 4 C5.69 3.67 3.38 3.34 1 3 C0.67 2.01 0.34 1.02 0 0 Z " fill="#551B58" transform="translate(273,125)"/>
<path d="M0 0 C0.33 0 0.66 0 1 0 C1.33 3.3 1.66 6.6 2 10 C-0.31 10 -2.62 10 -5 10 C-4.360625 9.649375 -3.72125 9.29875 -3.0625 8.9375 C-0.17836168 6.22815794 -0.2899178 3.84141089 0 0 Z " fill="#561959" transform="translate(294,351)"/>
<path d="M0 0 C1.65 0.33 3.3 0.66 5 1 C5 1.99 5 2.98 5 4 C3.35 4 1.7 4 0 4 C0 2.68 0 1.36 0 0 Z " fill="#6F3C71" transform="translate(174,353)"/>
<path d="M0 0 C1.44977894 2.34112451 2.04314411 3.5796929 1.7578125 6.359375 C1.54898438 7.14828125 1.34015625 7.9371875 1.125 8.75 C0.92132813 9.54921875 0.71765625 10.3484375 0.5078125 11.171875 C0.34023437 11.77515625 0.17265625 12.3784375 0 13 C-1.44977894 10.65887549 -2.04314411 9.4203071 -1.7578125 6.640625 C-1.54898438 5.85171875 -1.34015625 5.0628125 -1.125 4.25 C-0.92132813 3.45078125 -0.71765625 2.6515625 -0.5078125 1.828125 C-0.34023437 1.22484375 -0.17265625 0.6215625 0 0 Z " fill="#996B9C" transform="translate(129,280)"/>
<path d="M0 0 C2.475 0.495 2.475 0.495 5 1 C5 2.32 5 3.64 5 5 C3.68 5 2.36 5 1 5 C0.67 3.35 0.34 1.7 0 0 Z " fill="#743C76" transform="translate(363,191)"/>
<path d="M0 0 C0.99 0.33 1.98 0.66 3 1 C2.67 2.65 2.34 4.3 2 6 C1.01 6 0.02 6 -1 6 C-0.67 4.02 -0.34 2.04 0 0 Z " fill="#6E3D70" transform="translate(146,176)"/>
<path d="M0 0 C1.32 0.66 2.64 1.32 4 2 C2.63016497 5.16115776 2.0109362 5.9927092 -1 8 C-1 7.01 -1 6.02 -1 5 C-0.34 5 0.32 5 1 5 C1 4.34 1 3.68 1 3 C0.01 2.67 -0.98 2.34 -2 2 C-1.34 1.34 -0.68 0.68 0 0 Z " fill="#976B97" transform="translate(156,164)"/>
<path d="M0 0 C0 0.99 0 1.98 0 3 C-2.875 3.625 -2.875 3.625 -6 4 C-6.66 3.34 -7.32 2.68 -8 2 C-4.91190305 0.23537317 -3.76687864 0 0 0 Z " fill="#6A346E" transform="translate(205,133)"/>
<path d="M0 0 C0.515625 0.391875 1.03125 0.78375 1.5625 1.1875 C-5.86607143 3.61607143 -5.86607143 3.61607143 -9.4375 2.1875 C-3.0375 -1.0125 -3.0375 -1.0125 0 0 Z " fill="#57205A" transform="translate(281.4375,363.8125)"/>
<path d="M0 0 C1.5625 1.25 1.5625 1.25 3 3 C2.6875 5.1875 2.6875 5.1875 2 7 C1.34 7 0.68 7 0 7 C-0.33 7.99 -0.66 8.98 -1 10 C-1.125 3.375 -1.125 3.375 0 0 Z " fill="#551658" transform="translate(321,337)"/>
<path d="M0 0 C2 2 2 2 2.125 5.125 C2.08375 6.07375 2.0425 7.0225 2 8 C1.01 8 0.02 8 -1 8 C-0.67 5.36 -0.34 2.72 0 0 Z " fill="#662E65" transform="translate(128,216)"/>
<path d="M0 0 C0.66 0.33 1.32 0.66 2 1 C-0.77280706 4.08089673 -3.06326356 5.68775452 -7 7 C-7 6.01 -7 5.02 -7 4 C-6.34 4 -5.68 4 -5 4 C-5 3.34 -5 2.68 -5 2 C-4.360625 1.855625 -3.72125 1.71125 -3.0625 1.5625 C-1.02454854 1.18992819 -1.02454854 1.18992819 0 0 Z " fill="#A581A6" transform="translate(284,190)"/>
<path d="M0 0 C0.99 0 1.98 0 3 0 C3 1.65 3 3.3 3 5 C1.68 5 0.36 5 -1 5 C-0.67 3.35 -0.34 1.7 0 0 Z " fill="#6B346F" transform="translate(356,322)"/>
<path d="M0 0 C1.32 0 2.64 0 4 0 C4 0.99 4 1.98 4 3 C4.66 3.33 5.32 3.66 6 4 C5.67 4.66 5.34 5.32 5 6 C4.34 6 3.68 6 3 6 C0 2.53846154 0 2.53846154 0 0 Z " fill="#A37DA4" transform="translate(159,323)"/>
<path d="M0 0 C2.15377564 2.62198774 3.40072174 4.64404172 4 8 C1 7 1 7 -1 4 C-1.66 4 -2.32 4 -3 4 C-3 3.34 -3 2.68 -3 2 C-2.01 1.34 -1.02 0.68 0 0 Z " fill="#9D74A1" transform="translate(136,301)"/>
<path d="M0 0 C0.99 0 1.98 0 3 0 C2.46930939 3.82097239 1.50298434 6.06171403 -1 9 C-0.67 6.03 -0.34 3.06 0 0 Z " fill="#875389" transform="translate(124,227)"/>
<path d="M0 0 C0.99 0.33 1.98 0.66 3 1 C3.33 3.31 3.66 5.62 4 8 C3.01 8 2.02 8 1 8 C1.020625 7.236875 1.04125 6.47375 1.0625 5.6875 C1.12942841 2.89814214 1.12942841 2.89814214 0 0 Z " fill="#5D235E" transform="translate(368,199)"/>
<path d="M0 0 C1.32 0.99 2.64 1.98 4 3 C2 5 2 5 0 6 C-0.66 5.67 -1.32 5.34 -2 5 C-1.34 3.35 -0.68 1.7 0 0 Z " fill="#8D5F8E" transform="translate(190,361)"/>
<path d="M0 0 C0.66 0.33 1.32 0.66 2 1 C0.35 2.98 -1.3 4.96 -3 7 C-4.32 6.67 -5.64 6.34 -7 6 C-4.69 4.02 -2.38 2.04 0 0 Z " fill="#C7ABC9" transform="translate(279,222)"/>
<path d="M0 0 C4 0 4 0 7 1 C7 2.32 7 3.64 7 5 C6.34 5 5.68 5 5 5 C5 4.34 5 3.68 5 3 C3.68 3 2.36 3 1 3 C0.67 2.01 0.34 1.02 0 0 Z " fill="#835186" transform="translate(245,179)"/>
<path d="M0 0 C0.33 0.99 0.66 1.98 1 3 C1.99 3.33 2.98 3.66 4 4 C2.02 4.99 2.02 4.99 0 6 C-1.32 5.01 -2.64 4.02 -4 3 C-2.68 2.01 -1.36 1.02 0 0 Z " fill="#946794" transform="translate(171,150)"/>
<path d="M0 0 C0.598125 0.474375 1.19625 0.94875 1.8125 1.4375 C4.00382924 3.16465744 4.00382924 3.16465744 7 4 C4.69 4.33 2.38 4.66 0 5 C-0.5625 3.0625 -0.5625 3.0625 -1 1 C-0.67 0.67 -0.34 0.34 0 0 Z " fill="#6E3970" transform="translate(318,141)"/>
<path d="M0 0 C2.31 0 4.62 0 7 0 C6.67 1.32 6.34 2.64 6 4 C4.35 4.33 2.7 4.66 1 5 C1.33 4.01 1.66 3.02 2 2 C1.34 1.34 0.68 0.68 0 0 Z " fill="#8B5D8D" transform="translate(211,128)"/>
<path d="M0 0 C1.98 0.495 1.98 0.495 4 1 C3.34 2.32 2.68 3.64 2 5 C1.01 4.67 0.02 4.34 -1 4 C-0.67 2.68 -0.34 1.36 0 0 Z " fill="#642866" transform="translate(325,354)"/>
<path d="M0 0 C0.66 0 1.32 0 2 0 C2.33 1.65 2.66 3.3 3 5 C1.68 5 0.36 5 -1 5 C-0.67 3.35 -0.34 1.7 0 0 Z " fill="#6C3D70" transform="translate(367,302)"/>
<path d="M0 0 C2.13093906 1.06546953 3.36587557 2.29159719 5 4 C3.35 4.66 1.7 5.32 0 6 C0 5.01 0 4.02 0 3 C-0.99 2.67 -1.98 2.34 -3 2 C-2.01 1.34 -1.02 0.68 0 0 Z " fill="#A37AA4" transform="translate(190,137)"/>
<path d="" fill="#FFFFFF" transform="translate(0,0)"/>
<path d="" fill="#FFFFFF" transform="translate(0,0)"/>
<path d="" fill="#FFFFFF" transform="translate(0,0)"/>
<path d="" fill="#FFFFFF" transform="translate(0,0)"/>
<path d="" fill="#FFFFFF" transform="translate(0,0)"/>
<path d="" fill="#FFFFFF" transform="translate(0,0)"/>
<path d="" fill="#FFFFFF" transform="translate(0,0)"/>
<path d="" fill="#FFFFFF" transform="translate(0,0)"/>
<path d="" fill="#FFFFFF" transform="translate(0,0)"/>
<path d="" fill="#FFFFFF" transform="translate(0,0)"/>
<path d="" fill="#FFFFFF" transform="translate(0,0)"/>
<path d="" fill="#FFFFFF" transform="translate(0,0)"/>
<path d="" fill="#FFFFFF" transform="translate(0,0)"/>
</svg>
