<svg width="29" height="29" viewBox="0 0 29 29" fill="none" xmlns="http://www.w3.org/2000/svg">
<rect width="29" height="29" fill="white" fill-opacity="0"/>
<path d="M28.5686 5.96549C27.5597 6.41258 26.4758 6.71466 25.3363 6.8512C26.5121 6.1477 27.3917 5.04047 27.811 3.73612C26.7064 4.39223 25.4975 4.85406 24.2368 5.10153C23.389 4.19633 22.266 3.59634 21.0423 3.39473C19.8186 3.19312 18.5625 3.40116 17.4692 3.98655C16.3758 4.57194 15.5063 5.50193 14.9956 6.63213C14.485 7.76234 14.3617 9.02952 14.645 10.2369C12.4068 10.1246 10.2172 9.54282 8.2184 8.52946C6.21957 7.5161 4.45616 6.09377 3.0426 4.35478C2.55927 5.18853 2.28135 6.1552 2.28135 7.1847C2.28081 8.11149 2.50904 9.02408 2.94579 9.8415C3.38253 10.6589 4.01429 11.3559 4.78502 11.8706C3.89118 11.8422 3.01707 11.6007 2.23543 11.1662V11.2387C2.23534 12.5385 2.68497 13.7984 3.50803 14.8044C4.33109 15.8105 5.47687 16.5009 6.75097 16.7583C5.9218 16.9827 5.05247 17.0158 4.20864 16.855C4.56812 17.9734 5.26834 18.9515 6.21129 19.6522C7.15424 20.3529 8.29271 20.7412 9.46731 20.7627C7.47336 22.328 5.01084 23.1771 2.47589 23.1734C2.02685 23.1735 1.57819 23.1473 1.13223 23.0948C3.70534 24.7492 6.70064 25.6273 9.75972 25.6239C20.1151 25.6239 25.7762 17.0471 25.7762 9.60862C25.7762 9.36695 25.7701 9.12287 25.7593 8.8812C26.8604 8.08488 27.8109 7.09878 28.5662 5.96912L28.5686 5.96549Z" fill="#f8f8f8"/>
</svg>